<?xml version="1.0" encoding="utf-8"?>
<!-- Generator: Adobe Illustrator 21.1.0, SVG Export Plug-In . SVG Version: 6.00 Build 0)  -->
<svg version="1.1" id="圖層_1" xmlns="http://www.w3.org/2000/svg" xmlns:xlink="http://www.w3.org/1999/xlink" x="0px" y="0px"
	 viewBox="0 0 512 512" style="enable-background:new 0 0 512 512;" xml:space="preserve">
<style type="text/css">
	.st0{fill:#FFDC69;}
	.st1{fill:#EA7778;}
	.st2{fill:#8ACC8A;}
	.st3{fill:#7BB8D5;}
	.st4{fill:#C3E6F9;}
	.st5{fill:#6D6C6C;}
	.st6{fill:#E9E9EA;}
	.st7{fill:#232021;}
</style>
<path class="st0" d="M475.6,8.6h-3.6V5c0-2.8-2.2-5-5-5s-5,2.2-5,5v3.6h-3.6c-2.8,0-5,2.2-5,5c0,2.8,2.2,5,5,5h3.6v3.6
	c0,2.8,2.2,5,5,5s5-2.2,5-5v-3.6h3.6c2.8,0,5-2.2,5-5C480.6,10.8,478.4,8.6,475.6,8.6z"/>
<path class="st1" d="M451.8,64c0-0.4-0.2-0.6-0.2-1c-0.2-0.2-0.2-0.6-0.4-0.8c-0.2-0.2-0.4-0.6-0.6-0.8c-2-1.8-5-1.8-7,0
	c-0.2,0.2-0.4,0.4-0.6,0.8c-0.4,0.6-0.6,1.2-0.8,1.8c-0.2,0.6-0.2,1.4,0,2c0,0.4,0.2,0.6,0.2,1c0.2,0.4,0.2,0.6,0.4,0.8
	s0.4,0.6,0.6,0.8c2,2,5,2,7,0c0.2-0.2,0.4-0.4,0.6-0.8c0.2-0.2,0.4-0.6,0.4-0.8c0.2-0.2,0.2-0.6,0.2-1
	C451.9,65.2,451.9,64.6,451.8,64z"/>
<path class="st2" d="M9.8,412c0-0.4-0.2-0.6-0.2-1c-0.2-0.2-0.2-0.6-0.4-0.8c-0.2-0.2-0.4-0.6-0.6-0.8c-2-1.8-5-1.8-7,0
	c-0.2,0.2-0.4,0.4-0.6,0.8c-0.4,0.6-0.6,1.2-0.8,1.8c-0.2,0.6-0.2,1.4,0,2c0,0.4,0.2,0.6,0.2,1c0.2,0.4,0.2,0.6,0.4,0.8
	s0.4,0.6,0.6,0.8c2,2,5,2,7,0c0.2-0.2,0.4-0.4,0.6-0.8c0.2-0.2,0.4-0.6,0.4-0.8c0.2-0.2,0.2-0.6,0.2-1C9.9,413.2,9.9,412.6,9.8,412z
	"/>
<path class="st3" d="M91.8,498c-6.6-1.2-11.8-6.4-13.2-13.2c0-0.2-0.2-0.2-0.4-0.2c-0.2,0-0.2,0.2-0.2,0.2
	c-1.2,6.6-6.4,11.8-13.2,13.2c-0.2,0-0.2,0.2-0.2,0.4c0,0.2,0.2,0.2,0.2,0.2c6.6,1.2,11.8,6.4,13.2,13.2c0,0.2,0.2,0.2,0.4,0.2
	c0.2,0,0.2-0.2,0.2-0.2c1.2-6.6,6.4-11.8,13.2-13.2c0.2,0,0.2-0.2,0.2-0.4C91.9,498.2,91.9,498,91.8,498z"/>
<path class="st4" d="M402.9,20H45.4c-7.4,0-13.2,6-13.2,13.2v421.6c0,7.4,6,13.2,13.2,13.2h357.6c1.2,0,2.2-0.2,3.4-0.4
	c-50.4-4.8-87.4-49.8-82.6-100.2c4.6-47,44.2-83,91.4-83h1.2V33.2C416.1,25.8,410.4,20,402.9,20z"/>
<path class="st3" d="M153.8,104.6h140.8c5.4,0,9.8,4.4,9.8,9.8c0,5.4-4.4,9.8-9.8,9.8H153.8c-5.4,0-9.8-4.4-9.8-9.8
	C143.9,109,148.4,104.6,153.8,104.6z"/>
<path class="st5" d="M402.9,20H45.4c-7.4,0-13.2,6-13.2,13.2V69h384.2V33.2C416.1,25.8,410.4,20,402.9,20z"/>
<path class="st6" d="M166.6,156.8h203.6v49.6H166.6V156.8z"/>
<path class="st6" d="M166.6,232.2h203.6v49.6H166.6V232.2z"/>
<path class="st2" d="M263.1,395c0-6.2-5-11-11-11h-75.2c-6.2,0-11,5-11,11c0.2,15.8-0.2,16.4,0.4,19c1.4,4.8,5.6,8.2,10.6,8.2h75
	c5,0,9.4-3.4,10.6-8.2C263.4,411.6,262.9,410.8,263.1,395z"/>
<path class="st6" d="M353.9,307.6H166.6v49.6h158.8C329.1,338,339.4,320.6,353.9,307.6z"/>
<path class="st2" d="M506.9,376.2c0,50.7-41.1,91.8-91.8,91.8c-50.7,0-91.8-41.1-91.8-91.8s41.1-91.8,91.8-91.8
	C465.9,284.4,506.9,325.5,506.9,376.2z"/>
<path class="st3" d="M428.8,409.6c-0.2,0.2-0.4,0.4-0.8,0.6c-7.6,4.8-17.8,2.8-23-4.6l-19.4-27.8c-5.2-7.4-3.8-17.8,3.6-23.2
	c0.2-0.2,0.4-0.4,0.8-0.6l-17-24.4l-9.4,18.6c-4.4,10.8-3.2,23,3.6,32.6l29,41.4c6.6,9.6,17.8,15,29.4,14.4l20.4-2.6L428.8,409.6z"
	/>
<path class="st4" d="M375.9,319l12.6-8.8c2.2-1.6,5.2-1,6.8,1.2l18.2,26c1.6,2.2,1,5.2-1.2,6.8l-15.6,11c-2.2,1.6-5.2,1-6.8-1.2
	l-16-23C371.1,327.2,372.1,321.8,375.9,319z"/>
<path class="st4" d="M470.6,418.8l-18.2-26c-1.6-2.2-4.6-2.8-6.8-1.2l-15.6,11c-2.2,1.6-2.8,4.6-1.2,6.8l16,23c2.8,3.8,8,4.8,12,2.2
	l12.6-8.8C471.6,424,472.1,421,470.6,418.8z"/>
<path d="M415.1,473c-53.4,0-96.8-43.4-96.8-96.8c0-53.4,43.4-96.8,96.8-96.8c53.4,0,96.8,43.4,96.8,96.8
	C511.9,429.6,468.6,473,415.1,473z M415.1,289.4c-48,0-86.8,38.8-86.8,86.8s38.8,86.8,86.8,86.8s86.8-38.8,86.8-86.8
	S462.9,289.4,415.1,289.4z"/>
<path d="M402.9,473H45.4c-10,0-18.2-8.2-18.2-18.2V33.2c0-10,8.2-18.2,18.2-18.2h357.6c10,0,18.2,8.2,18.2,18.2v251.2
	c0,1.4-0.6,2.6-1.4,3.6c-1,1-2.2,1.4-3.6,1.4h-1.2c-48,0-86.8,38.8-86.8,86.8c0,44.8,34,82.2,78.4,86.4c2.8,0.2,4.8,2.8,4.6,5.4
	c-0.2,2-1.6,3.8-3.8,4.4C405.9,472.8,404.6,473,402.9,473z M45.4,25c-4.6,0-8.2,3.8-8.2,8.2v421.6c0,4.6,3.8,8.2,8.2,8.2h326.6
	c-48-23.8-67.4-82-43.6-130c15.8-31.6,47.6-52.2,82.8-53.6V33.2c0-4.6-3.8-8.2-8.2-8.2H45.4z"/>
<path d="M423.8,441.6c-12.8,0-24.6-6.2-32-16.6l-29-41.4c-7.8-11-9.2-25-4-37.4c0-0.2,0.2-0.2,0.2-0.4l9.4-18.6
	c1.2-2.4,4.2-3.4,6.8-2.2c0.8,0.4,1.4,1,1.8,1.6l17,24.4c1.6,2.2,1,5.4-1.2,7c-0.2,0.2-0.4,0.2-0.6,0.4c-5,4-6.2,11.2-2.4,16.4
	l19.4,27.8c3.6,5.2,10.8,6.8,16.2,3.4c0.2-0.2,0.4-0.2,0.6-0.4c2.2-1.6,5.4-1,7,1.2l17.2,24.6c1.6,2.2,1,5.4-1.2,7
	c-0.6,0.4-1.4,0.8-2.2,0.8l-20.8,2.4c-0.2,0-0.2,0-0.4,0C424.9,441.6,424.4,441.6,423.8,441.6z M367.9,350.2
	c-3.8,9.2-2.6,19.6,3,27.6l29,41.4c5.6,8.2,15,12.8,25,12.4l12.2-1.4l-9.8-14c-9.6,4-20.6,0.6-26.4-7.8l-19.4-27.8
	c-6-8.4-5.4-19.8,1.6-27.4l-9.8-14L367.9,350.2z"/>
<path d="M393.9,361c-3.2,0-6.2-1.6-8.2-4.2l-16-23c-4.2-6.2-2.8-14.6,3.4-18.8l12.6-8.8c4.4-3.2,10.6-2,13.8,2.4l18.2,26
	c3.2,4.4,2,10.6-2.4,13.8l-15.6,11C397.9,360.4,395.9,361,393.9,361z M391.4,314.2l-12.4,8.8c-1.6,1.2-2,3.4-0.8,5l16,23l15.4-11
	L391.4,314.2z"/>
<path d="M451.9,441c-0.8,0-1.6,0-2.4-0.2c-3.6-0.6-6.8-2.6-8.8-5.6l-16-23c-3.2-4.4-2-10.6,2.4-13.8l15.6-11
	c4.4-3.2,10.6-2,13.8,2.4l18.2,26c3.2,4.4,2,10.6-2.4,13.8l-12.6,8.8C457.4,440.2,454.8,441,451.9,441z M448.4,395.8l-15.6,11
	l16,22.8c1.2,1.6,3.4,2,5,0.8l12.6-8.8L448.4,395.8z"/>
<path d="M294.6,129.4H153.8c-8.2,0-14.8-6.4-15-14.6c0-8.2,6.4-14.8,14.6-15h0.4h140.8c8.2,0,14.8,6.8,14.6,15
	C309.1,122.8,302.6,129.2,294.6,129.4z M153.8,109.6c-2.6,0-4.8,2-5,4.8c0,2.6,2,4.8,4.8,5h0.2h140.8c2.6,0,4.8-2.2,4.8-5
	c0-2.6-2.2-4.6-4.8-4.8H153.8z"/>
<g>
	<path class="st7" d="M61.4,49.2c-0.4,0-0.6,0-1,0c-0.4,0-0.6-0.2-1-0.2c-0.4-0.2-0.6-0.2-0.8-0.4c-0.2-0.2-0.6-0.4-0.8-0.6
		c-1-1-1.4-2.2-1.4-3.6c0-0.4,0-0.6,0-1c0-0.4,0.2-0.6,0.2-1c0.2-0.4,0.2-0.6,0.4-0.8c0.2-0.2,0.4-0.6,0.6-0.8s0.4-0.4,0.8-0.6
		c0.2-0.2,0.6-0.4,0.8-0.4c1.2-0.6,2.6-0.6,3.8,0c0.4,0.2,0.6,0.2,0.8,0.4s0.6,0.4,0.8,0.6s0.4,0.4,0.6,0.8c0.2,0.2,0.4,0.6,0.4,0.8
		c0.2,0.4,0.2,0.6,0.4,1v1c0,1.4-0.6,2.6-1.4,3.6c-0.2,0.2-0.4,0.4-0.8,0.6c-0.2,0.2-0.6,0.4-0.8,0.4c-0.4,0.2-0.6,0.2-1,0.2
		C61.9,49.2,61.6,49.2,61.4,49.2z"/>
	<path class="st7" d="M78.9,49.2c-2.8,0-5-2.2-5-5c0-0.4,0-0.6,0-1c0-0.4,0.2-0.6,0.2-1c0.2-0.4,0.2-0.6,0.4-0.8
		c0.2-0.2,0.4-0.6,0.6-0.8c0.2-0.2,0.4-0.4,0.8-0.6c0.6-0.4,1.2-0.6,1.8-0.8s1.4-0.2,2,0s1.2,0.4,1.8,0.8c0.2,0.2,0.6,0.4,0.8,0.6
		c0.2,0.2,0.4,0.4,0.6,0.8c0.2,0.2,0.4,0.6,0.4,0.8c0.2,0.4,0.2,0.6,0.2,1v1C83.9,47,81.8,49.2,78.9,49.2z"/>
	<path class="st7" d="M96.6,49.2c-2.8,0-5-2.2-5-5c0-0.4,0-0.6,0-1c0-0.4,0.2-0.6,0.4-1c0.2-0.4,0.2-0.6,0.4-0.8
		c0.2-0.2,0.4-0.6,0.6-0.8c0.2-0.2,0.4-0.4,0.8-0.6c0.2-0.2,0.6-0.4,0.8-0.4c0.4-0.2,0.6-0.2,1-0.2c1.6-0.4,3.4,0.2,4.4,1.4
		c0.2,0.2,0.4,0.4,0.6,0.8c0.2,0.2,0.4,0.6,0.4,0.8c0.2,0.4,0.2,0.6,0.4,1v1C101.6,46.8,99.4,49.2,96.6,49.2z"/>
	<path class="st7" d="M364.9,49.2H133.8c-2.8,0-5-2.2-5-5s2.2-5,5-5h231.2c2.8,0,5,2.2,5,5S367.8,49.2,364.9,49.2z"/>
	<path class="st7" d="M416.1,74H31.9c-2.8,0-5-2.2-5-5V33.2c0-10,8.2-18.2,18.2-18.2h357.6c10,0,18.2,8.2,18.2,18.2V69
		C421.1,71.8,418.9,74,416.1,74z M36.9,64h374.2V33.2c0-4.6-3.8-8.2-8.2-8.2H45.4c-4.6,0-8.2,3.8-8.2,8.2L36.9,64z"/>
	<path class="st7" d="M369.9,211.4H166.6c-2.8,0-5-2.2-5-5v-49.6c0-2.8,2.2-5,5-5h203.4c2.8,0,5,2.2,5,5v49.6
		C374.9,209.2,372.8,211.4,369.9,211.4z M171.6,201.4h193.6v-39.6H171.6V201.4z"/>
	<path class="st7" d="M139.8,171.4H77.9c-2.8,0-5-2.2-5-5c0-2.8,2.2-5,5-5h61.8c2.8,0,5,2.2,5,5
		C144.8,169.2,142.6,171.4,139.8,171.4z"/>
	<path class="st7" d="M369.9,286.8H166.6c-2.8,0-5-2.2-5-5v-49.6c0-2.8,2.2-5,5-5h203.4c2.8,0,5,2.2,5,5v49.6
		C374.9,284.6,372.8,286.8,369.9,286.8z M171.6,276.8h193.6v-39.6H171.6V276.8z"/>
	<path class="st7" d="M139.8,246.8H77.9c-2.8,0-5-2.2-5-5s2.2-5,5-5h61.8c2.8,0,5,2.2,5,5S142.6,246.8,139.8,246.8z"/>
	<path class="st7" d="M139.8,322.2H77.9c-2.8,0-5-2.2-5-5s2.2-5,5-5h61.8c2.8,0,5,2.2,5,5S142.6,322.2,139.8,322.2z"/>
	<path class="st7" d="M251.9,427.2h-75c-7.2,0-13.6-4.8-15.4-11.8c-0.6-2.8-0.8-5.6-0.6-8.4c0-2.6,0-6.2,0-12c0-8.8,7.2-16,16-16.2
		h75c8.8,0,16,7.2,16,16v12c0.2,2.8,0,5.6-0.6,8.4C265.6,422.4,259.1,427.2,251.9,427.2z M176.9,389c-3.4,0-6,2.8-6,6v12
		c-0.2,1.8-0.2,3.8,0.2,5.6c0.8,2.6,3.2,4.4,5.8,4.4h75c2.8,0,5.2-1.8,5.8-4.4c0.4-1.8,0.4-3.8,0.2-5.6c0-2.6,0-6.4,0-12
		c0-3.4-2.8-6-6-6H176.9z"/>
	<path class="st7" d="M325.1,362.2H166.6c-2.8,0-5-2.2-5-5v-49.6c0-2.8,2.2-5,5-5h187.4c2.8,0,5,2.2,5,5c0,1.4-0.6,2.8-1.6,3.8
		c-13.8,12.4-23.4,28.8-27.2,47C329.6,360.6,327.6,362.2,325.1,362.2z M171.6,352.2h149.8c3.6-14.6,10.8-28.2,20.8-39.6H171.6V352.2
		z"/>
</g>
</svg>
