<?xml version="1.0" encoding="utf-8"?>
<!-- Generator: Adobe Illustrator 21.1.0, SVG Export Plug-In . SVG Version: 6.00 Build 0)  -->
<svg version="1.1" id="圖層_1" xmlns="http://www.w3.org/2000/svg" xmlns:xlink="http://www.w3.org/1999/xlink" x="0px" y="0px"
	 viewBox="0 0 147.4 147.4" style="enable-background:new 0 0 147.4 147.4;" xml:space="preserve">
<style type="text/css">
	.st0{fill:#588766;}
	.st1{fill:#41844D;}
	.st2{fill:#51995E;}
	.st3{fill:#549D61;}
	.st4{fill:#58A366;}
	.st5{fill:#639671;}
	.st6{fill:#62AF6F;}
	.st7{fill:#498F56;}
	.st8{fill:#213E2A;}
	.st9{fill:#34733F;}
	.st10{fill:#CD5051;}
	.st11{fill:#BF4949;}
	.st12{fill:#B54443;}
	.st13{fill:#D35354;}
	.st14{fill:#BA4646;}
	.st15{fill:#771E2F;}
	.st16{fill:#7C2132;}
	.st17{fill:#802334;}
	.st18{fill:#B74544;}
	.st19{fill:#781F17;}
	.st20{fill:#711A2B;}
	.st21{fill:#832537;}
	.st22{fill:#872739;}
	.st23{fill:#731B2C;}
	.st24{fill:#AD3F3E;}
	.st25{fill:#EC5F61;}
	.st26{fill:#A83C3B;}
	.st27{fill:#C94E4F;}
	.st28{fill:#BE4256;}
	.st29{fill:#A33938;}
	.st30{fill:#751F14;}
	.st31{fill:#B34342;}
	.st32{fill:#A13547;}
	.st33{fill:#49000F;}
	.st34{fill:#45000B;}
	.st35{fill:#C94E4E;}
	.st36{fill:#882224;}
	.st37{fill:#48000E;}
	.st38{fill:#25921D;}
	.st39{fill:#3FC131;}
	.st40{fill:#39B42C;}
	.st41{fill:#31A726;}
	.st42{fill:#2EA224;}
	.st43{fill:#2C9E22;}
	.st44{fill:#38B32B;}
	.st45{fill:#0F7209;}
	.st46{fill:#2DA023;}
	.st47{fill:#30A425;}
	.st48{fill:#187E12;}
	.st49{fill:#32A827;}
	.st50{fill:#2093C9;}
	.st51{fill:#27A2DC;}
	.st52{fill:#117AAB;}
	.st53{fill:#2297CE;}
	.st54{fill:#137DAF;}
	.st55{fill:#0A72A1;}
	.st56{fill:#259DD6;}
	.st57{fill:#2AA8E3;}
	.st58{fill:#036996;}
	.st59{fill:#2EB2F0;}
	.st60{fill:#137EB0;}
	.st61{fill:#B175C3;}
	.st62{fill:#613170;}
	.st63{fill:#BF81D2;}
	.st64{fill:#955FA7;}
	.st65{fill:#5B2B69;}
	.st66{fill:#8C589E;}
	.st67{fill:#BD7FD0;}
	.st68{fill:#A96FBB;}
	.st69{fill:#C081D2;}
	.st70{fill:#B478C7;}
	.st71{fill:#4C1958;}
	.st72{fill:#673776;}
	.st73{fill:#764487;}
	.st74{fill:#6B3A7A;}
	.st75{fill:#8E59A0;}
	.st76{fill:#42854E;}
	.st77{fill:#6DBE7A;}
	.st78{fill:#C34B4B;}
	.st79{fill:#841F22;}
	.st80{fill:#FFB340;}
	.st81{fill:#FFC449;}
	.st82{fill:#FFD04E;}
	.st83{fill:#FFC148;}
	.st84{fill:#FFC64A;}
	.st85{fill:#E69E31;}
	.st86{fill:#FFC348;}
	.st87{fill:#FFB943;}
	.st88{fill:#F4AA3A;}
	.st89{fill:#FFCA4B;}
	.st90{fill:#FFC349;}
	.st91{fill:#FFCF4D;}
	.st92{fill:#FFC84A;}
	.st93{fill:#F2A939;}
	.st94{fill:#FFCC4C;}
</style>
<g>
	<path class="st0" d="M124.2,135.2c-0.2,7-5.5,6.9-10.4,8c-8,1.9-15.9,3.4-24,1.1l0.3-0.3c1.8-0.3,3.6-0.5,5.4-1.1
		c3-0.9,5.9-2.1,8.7-3.1c-1.6-2.9-3.9-7-6.3-11c-0.6-0.9-1.8-2.1-2.7-2c-4.7,0.1-6.5-3.2-8.3-6.6c-1.7-1.7-3.3-3.4-5-5.1
		c3.4,2.3,6.8,4.6,10.2,6.8c2.7,1.8,5.5,3.5,8.3,5.2c0.4-0.5,0.9-1,1.3-1.4c-1.6-3.2-3.2-6.4-4.7-9.6c6.2-0.1,7.2-2.1,3.9-7.8
		c0.4-2.5,1.3-3.5,3.9-1.8c1.9,1.2,4.1,1.8,6.2,2.6c1.1,1.8,2,3.9,3.5,5.5c1.8,2,2.5,3.7,0.1,5.4c-3.5,2.6-2.3,5.7-0.8,8.5
		C116,132.5,119.3,135.1,124.2,135.2z"/>
	<path class="st1" d="M81.8,114.9c1.7,1.7,3.3,3.4,5,5.1c-1.3,3.7-2.7,7.4-4,11.1c-1.3,2.4-2.7,4.7-4,7.1c-1.4-0.7-3.4-0.9-4.2-2.1
		c-3.3-4.7-6.4-9.5-9.2-14.5c-0.6-1,0.6-3,0.1-4.3c-0.6-2.5-1.6-5-1.7-7.6c-0.2-2.6,0.2-5.4,0.9-7.9c0.3-1.2,2-2.1,3.1-3.1
		c1.8-1.7,3.2-1.9,4.8,0.6c1,1.5,3.1,2.4,4.6,3.5c0.3-0.3,0.6-0.6,0.9-0.9c0.9,3,1.8,6,2.7,9C81,112.3,81.4,113.6,81.8,114.9z"/>
	<path class="st2" d="M124.2,135.2c-4.9-0.1-8.2-2.7-10.4-6.8c-1.5-2.8-2.7-5.9,0.8-8.5c2.4-1.8,1.7-3.5-0.1-5.4
		c-1.4-1.6-2.3-3.6-3.5-5.5l0.1-0.1c2.2-1.5,4.4-3.1,7.2-5.1c1.1,2.6,2.4,4.8,3,7.1c1,4.4,2.6,4.1,5,1c1.7-1,3.3-2,5-2.9
		c0.8,0.9,1.6,1.8,2.7,2.9c0.7-1.1,1.1-1.6,1.4-2.2c0.3-0.6,0.6-1.2,0.8-1.8c-0.2,5.3,0.8,10.8-3.1,15.3c-0.6,0.7-0.6,1.9-0.7,2.9
		c0,6.4-2.4,8.4-8.5,7.1C124,133.9,124.1,134.5,124.2,135.2z"/>
	<path class="st3" d="M72.6,84.4c2.4,3.4,4.8,6.9,7.2,10.3c2.1,5.3,4,10.6,0.9,16.2c-0.9-3-1.8-6-2.7-9c-0.3,0.3-0.6,0.6-0.9,0.9
		c-1.6-1.2-3.6-2-4.6-3.5c-1.6-2.4-3-2.2-4.8-0.6C68.3,93.7,68.6,88.4,72.6,84.4z"/>
	<path class="st4" d="M78.7,138.2c1.3-2.4,2.7-4.7,4-7.1c2.7,4.1,1.4,10.6,7.4,12.8l-0.3,0.3C84.7,144.7,80.4,143.9,78.7,138.2z"/>
	<path class="st5" d="M103.7,72.8c-1,1.9-1.9,3.7-2.9,5.6c-2.7-0.3-5.3-0.5-8-0.8C93.9,72.7,98,70.9,103.7,72.8z"/>
	<path class="st6" d="M80.7,111c3-5.6,1.1-10.9-0.9-16.2c0.3,0.2,0.6,0.3,0.9,0.5c7.1,6.9,13.3,5.2,16.4-4.5c3.2,3.9,3,6-1.2,10.2
		c-2.8,2.8-2.7,11.1,0.2,14c0.3,0.3,0.6,0.7,0.9,1c1.6,3.2,3.2,6.4,4.7,9.6c-0.4,0.5-0.9,1-1.3,1.4c-2.8-1.7-5.5-3.4-8.3-5.2
		c-3.4-2.2-6.8-4.5-10.2-6.8C81.4,113.6,81,112.3,80.7,111z"/>
	<path class="st7" d="M90.1,143.9c-5.9-2.3-4.6-8.7-7.4-12.8c1.3-3.7,2.7-7.4,4-11.1c1.8,3.4,3.5,6.7,8.3,6.6c0.9,0,2.1,1.1,2.7,2
		c2.4,4,4.7,8.1,6.3,11c-2.8,1-5.7,2.2-8.7,3.1C93.7,143.4,91.8,143.6,90.1,143.9z"/>
	<path class="st8" d="M96.9,115.9c-0.3-0.3-0.6-0.7-0.9-1c-0.3-3.6-0.8-7.4,4.8-6.8C104.1,113.8,103.1,115.8,96.9,115.9z"/>
	<path class="st9" d="M126.2,111.9c-1.9-3.4-4.2-6.6-5.5-10.3c-0.9-2.6,0.8-5.1,3.8-3.9c3.1,1.3,6,3.6,8.4,6.1
		c0.6,0.6-1,3.4-1.6,5.1C129.5,110,127.9,111,126.2,111.9z"/>
	<path class="st10" d="M76.2,81.2c-0.1,3.7-0.2,7.4-0.2,11.1c0,4.6-3.8,4.4-6.5,4.6C68.1,97,66,95.2,65,93.8
		c-2.6-3.7-1.8-6.7,2.6-8.7c2.9-1.3,5.6-3,8.4-4.6C76,80.7,76.1,81,76.2,81.2z"/>
	<path class="st11" d="M58.8,135.8c1.3-2,2.5-4.3,4.1-6.1c0.6-0.7,2.3-0.6,3.5-0.8c0.9,0.9,1.8,1.9,2.6,2.8c0.2,0.3,0.3,0.6,0.5,0.9
		c1.8,3.9,0.4,12.7-1.6,12.1c-3-0.9-5.4-4-7.9-6.3C59.3,137.9,59.2,136.7,58.8,135.8z"/>
	<path class="st12" d="M33.7,109.4c1,0.1,1.9,0.3,3.6,0.5c-4.5,4.4-6.7,10.5-13.8,10.7c-1.9-0.6-3.7-1.1-7-2.1
		c3.1-3.4,5.6-6.1,8.1-8.8C27.7,109.6,30.7,109.5,33.7,109.4z"/>
	<path class="st13" d="M77.2,117.7c-8.1-4.1-5.4-7.3-0.2-12.2c3.7,2.7,7.3,5.5,11,8.2c-0.7,0.8-1.3,1.7-2,2.5
		c0.7,0.4,1.5,0.9,2.3,1.4C84.6,117.6,80.9,117.6,77.2,117.7z"/>
	<path class="st14" d="M27.6,123.7c3.2-3.7,3.3-3.7,9.4-2.4c-0.2,3-0.4,6.1-0.6,9.2c-3.7,1.3-7.4,2.6-11.1,3.9
		c-0.2-0.5-0.5-1-0.7-1.5C25.6,129.9,26.6,126.8,27.6,123.7z"/>
	<path class="st15" d="M75.1,76.2c-2.5,0.8-4.9,1.6-8.6,2.7c-0.2-3.3-0.4-6.6-0.6-9.8c2.3-2,4.5-4.1,7.4-6.7
		C75.5,67.8,78.2,71.6,75.1,76.2z"/>
	<path class="st16" d="M88.3,85.4c-2.7,1.3-5.4,2.6-8.8,4.3c-0.7-3.7-1.2-6.1-1.7-8.5c0.4-0.5,0.6-1.4,1.2-1.6
		c3.2-1.4,6.5-2.6,9.8-3.9C88.6,79,88.4,82.2,88.3,85.4z"/>
	<path class="st17" d="M62.1,70.1c0.6,1.4,1.1,2.8,1.7,4.2c-1.3,2.7-2.6,5.3-3.8,8c-2.3,0.1-5.1,3.9-6.8,0.2c-0.9-2,0.4-5.1,0.9-7.7
		c0.3-1.3,1.1-2.4,1.7-3.6c1-1.2,2.1-2.4,4.4-5C60.9,67.8,61.5,69,62.1,70.1z"/>
	<path class="st18" d="M77.2,117.7c3.7-0.1,7.4-0.1,11.1-0.2c2.1,2.5,4.2,5,6.3,7.5c-0.4,0.7-0.8,1.4-1.2,2.1
		c-3.8-0.4-7.6-0.9-11.3-1.3C80.5,123,78.9,120.4,77.2,117.7z"/>
	<path class="st19" d="M46.7,125.7c1.1,0.2,3.1,0.3,3.1,0.7c0.3,1.9,0.6,4-0.2,5.6c-0.5,1.2-2.6,1.7-4,2.5c-2.5,0.5-4.9,0.9-7.7,1.5
		c-0.1-2.1-0.3-3.7-0.4-5.3c0.4-2,0.7-4,1.1-6c0.8-0.5,1.6-1,2.5-1.6C42.3,128.5,43,128.7,46.7,125.7z"/>
	<path class="st20" d="M51.8,71.2c0,1,0.3,2.2-0.1,2.9c-1.1,2-2.5,5.4-3.8,5.4c-3,0.1-6.4-1.1-6.2-5.4c0-0.7-0.1-1.3-0.2-2
		c0.6-2.2,1.1-4.4,1.9-7.7C46.7,67.1,49.3,69.1,51.8,71.2z"/>
	<path class="st21" d="M39.7,73.2c0.3,2.5,0.9,5.1,0.9,7.6c0,0.8-1.3,1.7-2,2.5c-1.1-0.8-2-1.8-3.2-2.3c-5.5-2.6-6.3-4.9-2.8-11.8
		C35,70.5,37.4,71.8,39.7,73.2z"/>
	<path class="st22" d="M27.7,98.4c-0.9-1.6-1.7-3.3-2.6-4.9c2.5-0.3,5-0.7,7.5-1c0.2,1.7,0.3,3.4,0.5,5.2c1.6,0.3,3,0.5,4.4,0.7
		c0.6,2.2,1.2,4.4,2,7C33.3,106.3,30.7,102.1,27.7,98.4z"/>
	<path class="st23" d="M38.7,83.2c0.7,1.3,1.4,2.7,2.1,4c0,0.4-0.1,0.7-0.1,1.1c-1-0.6-1.9-1.4-3-1.7c-1.5-0.5-3.6-1.5-4.6-0.9
		c-1.3,0.8-1.7,2.9-2.5,4.5c-1.1,0.1-2.2,0.2-3.3,0.3c-2.8-2.7-4.4-5.7-3.5-10.8C29.1,80.9,33.9,82.1,38.7,83.2z"/>
	<path class="st24" d="M25.4,107.6c-3.2-1.8-6.5-3.6-9.7-5.4c0.1-0.8,0.3-1.6,0.4-2.4c3.5-0.2,7-0.4,10.5-0.5
		C30.7,105.5,30.6,106.3,25.4,107.6z"/>
	<path class="st25" d="M25.4,107.6c5.2-1.3,5.3-2.2,1.2-8.3c0.4-0.3,0.7-0.7,1.1-1c3,3.7,5.7,7.9,11.8,6.9c-0.7-2.5-1.3-4.8-2-7
		c1-1.3,2.1-2.6,3.1-4c0,0.3,0,0.7,0,1c0.3,3.4,0.6,6.8,0.9,10.1c-2.6,1.3-5.2,2.6-7.8,3.9c-3,0.1-6,0.2-9.1,0.2
		C24.9,109,25.1,108.3,25.4,107.6z"/>
	<path class="st26" d="M69,131.8c-0.9-0.9-1.8-1.9-2.6-2.8c0.3-1,0.4-2.4,1.1-2.9c2.3-1.7,4.9-3.1,8.5-5.4c0.8,1.8,2,4.4,3.2,7
		c-1.8-0.2-3.6-0.5-5.8-0.8c-0.5,1.6-0.9,3.2-1.3,4.7C71,131.7,70,131.7,69,131.8z"/>
	<path class="st27" d="M53.9,135.7c0.3,1.4,0.7,2.8,1,4.1c-1.3,2.5-2.5,4.9-3.8,7.4c-0.5,0.1-1.1,0.1-1.6,0.2
		c-1.2-2.5-2.4-5.1-3.5-7.6c2.5-0.9,5.1-1.8,7.6-2.7C53.8,136.9,53.8,136.2,53.9,135.7z"/>
	<path class="st28" d="M40.7,95.4c0-0.3,0-0.7,0-1c-1.6-4.9-5.3-1.6-8-2c-2.5,0.3-5,0.7-7.5,1c0.7-1,1.5-2,2.2-3
		c1.1-0.1,2.2-0.2,3.3-0.3c2.7,0.1,5.4,0.4,8,0.3c0.7,0,1.3-1.4,2-2.1c0-0.4,0.1-0.7,0.1-1.1c0.6-0.7,1.2-1.4,1.8-2.1
		c-0.1,4.2-0.8,8.6,2.1,12.3C43.4,96.8,42,96.1,40.7,95.4z"/>
	<path class="st29" d="M53.9,135.7c-0.1,0.5-0.1,1.2-0.4,1.3c-2.5,1-5,1.8-7.6,2.7c-0.1-1.4-0.2-2.8-0.3-4.2c1.3-0.6,2.8-1.1,4-1.9
		C52.2,132.3,53.3,133.2,53.9,135.7z"/>
	<path class="st30" d="M72.1,131.6c0.4-1.5,0.9-3.1,1.3-4.7c2.2,0.3,4,0.5,5.8,0.8c0.3,0.3,0.6,0.7,1,1
		C79.4,135.1,74.9,131.2,72.1,131.6z"/>
	<path class="st31" d="M40.7,95.4c1.3,0.7,2.7,1.4,4,2.1c1,0,2,0,3.1-0.1c1.2,0.7,2.4,1.4,3.7,2.2c2.4-5,4.6-9.4,6.8-13.9
		c0.5-0.1,1-0.1,1.5-0.2c1.4,4.4,2.9,8.8,4.5,13.7c4.4-0.7,9.1-1.4,13.8-2.2c0.3,1.3,1,2.8,0.6,3.8c-0.6,1.6-2,3-3.1,4.4
		c-2.1,1.4-4.1,2.7-6.2,4.1c0.8,3.5,1.6,6.9,2.3,10.2c-3.2,0.9-6.3,1.8-9.5,2.8c-0.2,0.1-0.4,0.2-0.5,0.3c-2.3-1.1-4.7-2.2-7-3.3
		c-2.1-2.8-0.9-5.3,1.3-7c4.8-3.8,6.2,3.5,11.4,3.4c-3.7-4.6-4.6-9,1.6-11.8c-3.2-0.8-6.1-0.8-7.6-2.2c-1.5-1.5-1.6-4.5-2.3-6.8
		c-0.5-0.1-0.9-0.2-1.4-0.3c-1,2.1-1.5,4.7-3.1,6.2c-1.6,1.7-4.2,2.4-6.2,3.4c0.4,2,0.9,4.1,1.3,6.1c-2.7-1.7-5.5-3.3-8.2-5
		C41.2,102.2,41,98.8,40.7,95.4z"/>
	<path class="st32" d="M47.8,97.4c-1,0-2,0-3.1,0.1c-2.9-3.7-2.3-8-2.1-12.3c0.2-1.4,0.5-2.9,1-6.2c4.5,3.6,8.4,5.9,11.1,9.2
		C56,89.8,50,97.1,47.8,97.4z"/>
	<path class="st33" d="M59.9,82.3c1.3-2.7,2.6-5.3,3.8-8c1.6,3.9,4.4,7.9-1.6,11.5C61.4,84.6,60.6,83.4,59.9,82.3z"/>
	<path class="st34" d="M49.8,110.6c-0.4-2.1-0.9-4.1-1.3-6.1c2-1,4.6-1.7,6.2-3.4c1.5-1.6,2.1-4.1,3.1-6.2c0.5,0.1,0.9,0.2,1.4,0.3
		c0.7,2.3,0.8,5.3,2.3,6.8c1.4,1.4,4.4,1.4,7.6,2.2c-6.2,2.8-5.3,7.1-1.6,11.8c-5.2,0.1-6.6-7.1-11.4-3.4c-2.2,1.7-3.4,4.2-1.3,7
		c-2.3,1.1-4.6,2.2-6.9,3.3c0.6-1.5,1.2-3,1.9-4.5C50.9,115.7,53.6,113.1,49.8,110.6L49.8,110.6z"/>
	<path class="st35" d="M33.1,117.1c1.9-2,3.5-4.5,5.8-6c1.3-0.9,3.7-0.7,5.5-0.4c0.7,0.1,1.9,2,1.6,2.5c-0.8,1.9-1.9,4.4-3.5,5
		c-2.6,0.9-5.7,0.5-8.7,0.7C33.6,118.3,33.4,117.7,33.1,117.1z"/>
	<path class="st31" d="M62.8,123.2c-0.3,4.8-2.6,8.5-7.2,11.7c-0.9-2.6-2.1-4.9-2.3-7.2c-0.4-5.2,2-6.5,6.9-4.3
		c0.3,0.1,1-0.5,1.5-0.7c0.2-0.1,0.4-0.2,0.5-0.3C62.5,122.7,62.7,122.9,62.8,123.2z"/>
	<path class="st24" d="M49.8,110.5c3.9,2.6,1.1,5.1,0,7.7c-0.7,1.5-1.3,3-1.9,4.5c-0.6-0.8-1.9-1.9-1.8-2.5
		C47.1,117,48.5,113.8,49.8,110.5z"/>
	<path class="st29" d="M46.7,125.7c-3.8,3.1-4.5,2.8-5.5-2.6c-0.9,0.6-1.7,1.1-2.5,1.6c1-1.4,1.9-2.9,2.9-4.3c1,1.1,2,2.2,3.1,3.3
		C45.4,124.4,46.1,125,46.7,125.7z"/>
	<path class="st36" d="M62.8,123.2c-0.1-0.3-0.3-0.5-0.5-0.7c3.2-0.9,6.3-1.8,9.5-2.8C71.3,127.4,66.2,123.1,62.8,123.2z"/>
	<path class="st34" d="M32.6,92.4c2.8,0.4,6.4-2.9,8,2c-1,1.3-2.1,2.6-3.1,4c-1.4-0.2-2.8-0.5-4.4-0.7C33,95.8,32.8,94.1,32.6,92.4z
		"/>
	<path class="st37" d="M40.6,88.3c-0.7,0.7-1.3,2.1-2,2.1c-2.7,0.1-5.3-0.2-8-0.3c0.8-1.6,1.2-3.7,2.5-4.5c1-0.6,3.1,0.4,4.6,0.9
		C38.7,87,39.7,87.7,40.6,88.3z"/>
	<g>
		<path class="st38" d="M57.7,96.3c-2.3,2-4.7,3.9-7,5.9c-0.1-3.3-0.1-6.5-0.2-9.8c2.1,0,4.7,0.8,6-0.2c2.1-1.6,2.3-4.1,0.1-6.6
			c-1.1-1.2-0.8-3.6-1.7-5.1c-0.8-1.3-2.4-2.7-3.9-2.9c-0.9-0.1-3,1.6-3.1,2.7c-0.4,3.9-0.2,7.8-0.3,11.8c-1.2,2.4-2.4,4.8-4.1,8.1
			c-2.3-4.2-4.2-7.5-6-10.7c-0.5,0.2-0.9,0.3-1.4,0.5c0.5,3.1,1,6.3,1.5,9.4c-2.3,0.8-4.6,2.3-6.8,2.2c-1.9-0.1-3.7-2.2-5.5-3.4
			c1.6-1.1,3.4-1.9,4.7-3.3c1-1,1.3-2.7,1.8-4c-1.6-0.2-3.2-0.4-4.8-0.6c-1.2-1-2.5-2.1-3.8-3.2c-2.5,1.8-4.8,3.4-7,5
			c-1.4-2.7-7.1-3.2-4.2-8.1c3.5-0.4,6.9-0.7,10.4-1.1c4.8,1.1,4-3.2,4.5-5.3c1.1-4-1.7-6.8-7.5-8.7c-4.3,11.3-5,9.6-9.4,8.5
			c0.7-3.4,1.4-6.7,2.1-10.2c-7.2-0.6-2.3-4.3-2-6.9c-1.1-1.7-2.2-4.8-1.7-5.1c6.1-3.5,6-8.8,4.6-14.6c2.4-2.1,4.7-4.1,7.1-6.2
			c6.1-0.2,12.3-0.4,18.4-0.7c0.6,0,1.3,0,1.9,0c2.2,2.1,5.3,3.8,6.3,6.4c1.4,3.5,3.5,5,6.9,5.6c0.7,1,1.4,2,2.1,3
			c-1.2,0.4-2.4,1.1-3.6,1c-2-0.3-4-1.1-6.2-1.7c0.5,5,3.2,7.6,7.3,9.2c3.6,1.4,7,3.2,10.4,4.8c4,1.7,5.6,4.6,4.2,8.8
			c-0.9,2.7-1.9,5.5-3.3,8c-1.6,2.9-1.5,4.7,2.2,5.3C65.5,89.5,64,94.7,57.7,96.3z"/>
		<path class="st39" d="M13,40.7c1.3,5.7,1.5,11-4.6,14.6c-0.5,0.3,0.7,3.4,1.7,5.1c-0.2,2.6-5.1,6.3,2,6.9
			c-0.7,3.5-1.4,6.9-2.1,10.2c4.4,1.2,5.1,2.8,9.4-8.5c5.8,1.9,8.6,4.7,7.5,8.7c-0.6,2.1,0.2,6.4-4.5,5.3c-0.1-1.5,0.1-3.1-0.5-4.4
			c-0.4-0.8-2.5-1.6-2.9-1.3c-2.5,2.1-4.7,4.4-7,6.7c-2.9,4.9,2.8,5.4,4.2,8.1c1.3,0.8,2.6,1.5,3.9,2.3c1.7,1.3,3.4,2.6,5.2,3.9
			c1.8,1.2,3.6,3.3,5.5,3.4c2.2,0.2,4.6-1.4,6.8-2.2c0.6,1.6,1.3,3.1,1.9,4.7c-14.3,2-28.8-5.5-34.5-18c5-0.9,5.7-4,2.8-7.3
			c-1.8-2-5.2-2.7-7.9-3.9c0.4-1.8,1.4-3.6,1.1-5.3C-1.1,57.4,5.1,48.7,13,40.7z"/>
		<path class="st40" d="M53.6,45.8c-3.3-0.6-5.4-2.1-6.9-5.6c-1-2.6-4.1-4.3-6.3-6.4c9.6,2.2,19.3,4,24.3,14.1
			c0.8,1.6,1.9,3.3,3.2,4.5c4.9,4.6,5.6,10.4,4.9,16.6c-3-3.7-6-7.5-9.1-11.2c-1.2-2.2-3-4.2-3.4-6.5C59.7,47.1,57.8,45.3,53.6,45.8
			z"/>
		<path class="st41" d="M39.6,104.2c-0.6-1.6-1.3-3.1-1.9-4.7c-0.5-3.1-1-6.3-1.5-9.4c0.5-0.2,0.9-0.3,1.4-0.5
			c1.8,3.3,3.7,6.5,6,10.7c1.7-3.3,2.9-5.7,4.1-8.1c1,0.1,1.9,0.2,2.9,0.2c0.1,3.3,0.1,6.5,0.2,9.8C47,102.9,43.3,103.5,39.6,104.2z
			"/>
		<path class="st42" d="M63.8,57.8c3,3.7,6,7.5,9.1,11.2c-1.6,4.7-3.3,9.5-4.9,14.2c-0.4,0.3-0.8,0.6-1.2,1
			c-3.7-0.6-3.7-2.4-2.2-5.3c1.4-2.5,2.4-5.3,3.3-8c1.4-4.2-0.2-7.1-4.2-8.8C63.8,60.6,63.8,59.2,63.8,57.8z"/>
		<path class="st43" d="M0,75c2.7,1.3,6.1,1.9,7.9,3.9c2.9,3.3,2.2,6.4-2.8,7.3c-1.6-2.4-3.3-4.7-4.6-7.2C-0.1,77.9,0.1,76.3,0,75z"
			/>
		<path class="st44" d="M66.8,84.2c0.4-0.3,0.8-0.6,1.2-1c2.7,5.5-0.2,9.9-3,14.2c-2.9,4.3-4.9,0.1-7.2-1.1
			C64,94.7,65.5,89.5,66.8,84.2z"/>
		<path class="st40" d="M38.5,33.8c-6.1,0.2-12.3,0.4-18.4,0.7c2.7-3,5.5-3.6,9.4-1.9C32.2,33.7,35.5,33.4,38.5,33.8z"/>
		<path class="st45" d="M50.5,92.4c-1-0.1-1.9-0.2-2.9-0.2c0-3.9-0.1-7.9,0.3-11.8c0.1-1.1,2.2-2.8,3.1-2.7c1.4,0.2,3,1.6,3.9,2.9
			c0.9,1.5,0.6,3.8,1.7,5.1c2.2,2.5,2,5-0.1,6.6C55.2,93.2,52.5,92.4,50.5,92.4z"/>
		<path class="st46" d="M63.8,57.8c0,1.4,0,2.8-0.1,4.2c-3.5-1.6-6.9-3.4-10.4-4.8C49.2,55.6,46.5,53,46,48c2.2,0.7,4.2,1.5,6.2,1.7
			c1.1,0.1,2.4-0.6,3.6-1c-0.7-1-1.4-2-2.1-3c4.1-0.5,6.1,1.3,6.8,5.5C60.8,53.6,62.6,55.6,63.8,57.8z"/>
		<path class="st47" d="M12.1,84c2.3-2.3,4.5-4.7,7-6.7c0.4-0.3,2.5,0.5,2.9,1.3c0.6,1.3,0.4,2.9,0.5,4.4C19,83.3,15.5,83.7,12.1,84
			z"/>
		<path class="st48" d="M20.2,94.4c-1.3-0.8-2.6-1.5-3.9-2.3c2.3-1.6,4.5-3.2,7-5c1.3,1.1,2.6,2.2,3.8,3.2
			C27.2,95.7,22.9,93.8,20.2,94.4z"/>
		<path class="st49" d="M20.2,94.4c2.8-0.6,7,1.3,7-4.1c1.6,0.2,3.2,0.4,4.8,0.6c-0.6,1.4-0.9,3-1.8,4c-1.3,1.4-3.1,2.2-4.7,3.3
			C23.6,97,21.9,95.7,20.2,94.4z"/>
	</g>
	<g>
		<path class="st50" d="M101.7,58.9c-1.1,6-2.4,6.7-8.4,4.8c-0.9-0.3-2.1,0.1-3.2,0.2c2.1,8.9,0.3,10.8-9.3,10.2
			c-1.7-0.1-3.5,0.3-5.4,0.4c0.7-3.1,1.1-5.4,1.6-7.8c-0.4-0.2-0.7-0.5-1.1-0.7c-2.2,2-4.5,4.1-6,5.5c-3.8,0.2-7,0.1-10.1,0.5
			c-3,0.4-5.6,1.1-6.3-3.2c-0.2-1.2-2.4-2-3.7-3c1.3-1.9,2.6-3.8,4.3-6.2c-1.9-0.3-3.6-0.6-5.2-0.9c-0.7-0.7-1.4-1.5-2-2.2
			c0.3-2,0.7-3.9,1-5.9c2.7-1.4,5.4-2.7,8.1-4.1c0-1,0-2,0.1-3c4.9,1.9,2.6,6.7,4.1,10c1.2,1.5,2.4,3,2.7,3.5c4.8,0,8.7,0,12.6,0
			c0.9,1.7,1.7,3.4,3,5.9c1.5-2.1,2.4-3.7,3.7-5c1.5-1.5,3.4-2.8,5-4.1c1,0.7,2,1.3,3,2c-0.5,0.9-1,1.8-1.4,2.7c2.7,1,5.3,2,8.1,2.8
			c0.2,0,1-2.3,1.5-3.5C99.6,58.2,100.7,58.5,101.7,58.9z"/>
		<path class="st50" d="M58.1,4.3c0.7-0.4,1.4-0.8,2.1-1.1c1.1,1.1,2.1,2.6,3.4,3.4c2,1.2,5,3.5,6.3,2.8c5.1-2.4,5.7,0.5,7.1,4.1
			c3,7.7,5.7,8.8,12.2,6c0.8,4,1.6,7.9,2.4,11.9c0.6,0.4,1.2,0.8,1.9,1.2c1.5-0.6,3.1-1.2,4.6-1.7c1-0.3,2.1-0.4,3.1-0.6
			c0,1,0.3,2.3-0.2,3.1c-1.9,2.8-4,5.4-6.6,8.8c3.8,0.6,7.6,1.3,11.6,2c-3.4,6.5-5.8,7.5-11.4,5.5c-1.4-5.1-3.1-9.4-10-8.9
			c-1.9,0.2-4.6-2-5.9-3.8c-3.8-5.6-7.1-11.5-10.8-17.7c-0.9,0.5-2.4,1.2-3.9,1.9c-2.6-2.7-5.3-5.4-7.9-8c1.8-0.9,4.6-1.3,5.3-2.8
			C63,7.5,60.8,5.5,58.1,4.3z"/>
		<path class="st51" d="M91.6,31.4c-0.8-4-1.6-7.9-2.4-11.9c-0.4-0.5-1-1-1.2-1.6c-0.5-1.9-0.8-3.8-1.1-5.6c1.7-0.1,4.1-0.9,5.1-0.1
			c1.3,1.1,1.7,3.5,2,5.4c0.3,1.6,0.1,3.3,0.1,5c1.8-0.4,3.6-0.8,5.4-1.2c0.9,2.3,1.7,4.6,2.5,6.7c2.4-1.1,4.1-1.9,5.7-2.6
			c3,1.4,6.4,2.1,6.3,6.8c0,1.1,3,2.2,4.7,3.4c-0.1,0.5-0.1,1-0.2,1.5c-2,0.2-4.2,1.1-5.9,0.5c-1.5-0.5-2.4-2.7-3.6-4.1
			c-0.5,0.2-0.9,0.4-1.4,0.6c0.3,3.2,0.7,6.4,1,9.7c0.2,0,0.3,0,0.5,0c0.2,2.4,0.3,4.9,0.5,7.3c0.2,1.5,0.9,3,0.9,4.4
			c0,2.2-0.5,4.5-0.8,6.7c-2.2-0.8-4.4-1.7-6.6-2.5c-0.5-0.2-0.9-0.4-1.4-0.6c-1.1-0.4-2.1-0.7-3.2-1.1c-1.8-4.3-5.7-0.4-8.1-2
			c-1-0.7-2-1.3-3-2c0.7-0.7,1.4-1.4,2.1-2.1c1.7-0.7,3.5-1.4,5.2-2c5.6,1.9,8,0.9,11.4-5.5c-4-0.7-7.8-1.3-11.6-2
			c2.6-3.4,4.7-6,6.6-8.8c0.5-0.7,0.1-2,0.2-3.1c-1,0.2-2.1,0.3-3.1,0.6c-1.6,0.5-3.1,1.1-4.6,1.7c0.7-0.5,1.7-0.8,2-1.4
			c0.9-1.6,1.6-3.4,2-5.1c0.1-0.2-2.4-1.5-2.7-1.3c-1.2,1.1-2.2,2.6-3,4.1C91.4,29.6,91.6,30.6,91.6,31.4z"/>
		<path class="st52" d="M99.5,21.3c-1.8,0.4-3.6,0.8-5.4,1.2c0-1.7,0.2-3.4-0.1-5c-0.4-1.9-0.8-4.2-2-5.4c-0.9-0.8-3.3,0-5.1,0.1
			c0.4,1.9,0.7,3.8,1.1,5.6c0.2,0.6,0.8,1.1,1.2,1.6c-6.5,2.8-9.2,1.7-12.2-6c-1.4-3.6-2-6.5-7.1-4.1c-1.4,0.7-4.3-1.6-6.3-2.8
			c-1.3-0.8-2.3-2.2-3.4-3.4c0-2.8,2.1-4,5-2.5c2.7,1.4,4.7,2.5,8.1,0.9c1.9-0.9,6-0.7,7.1,3.5c0.4,1.5,2.2,2.5,3.9,4.3
			c2.3-6.5,4.8-7.4,9.3-4.3c5.2,3.6,10.4,7.3,15.9,11.2c-0.9,1.6-1.9,3.3-2.9,5C104.2,21.3,101.8,21.3,99.5,21.3z"/>
		<path class="st53" d="M56.1,46.6c-2.7,1.4-5.4,2.7-8.1,4.1c-1.3,0-2.7-0.1-4-0.1c0.3-6.7-2.4-11.7-8.1-15.1
			c0.1-4.1,1.2-7.6,6.9-8.4c-4.7-3.5-6.8,1-9.7,1.8c-0.4-0.3-0.9-0.6-1.3-0.9c1.3-2,2.2-4.9,4.1-5.9c3.2-1.8,7-2.4,10.5-3.5
			c0.6-0.2,1.1-0.7,1.7-1c1.7,0.6,3.3,1.3,5,1.9c-1.9,1.2-3.9,2.4-5.8,3.6c1.5,2.8-0.5,7-4.4,9.6c-1.2,0.7-2.8,3-2.5,3.3
			c1.1,1.4,2.6,3.1,4.2,3.3c3.9,0.3,3.9,2.5,3.2,5.2c-0.2,1-0.9,1.8-1.7,3.4C49.8,47.2,52.9,46.9,56.1,46.6z"/>
		<path class="st54" d="M35.8,35.4c5.7,3.4,8.4,8.5,8.1,15.1c-2.1,3.1-4.2,6.3-6.3,9.6c-0.5-0.4-1.2-0.6-1.2-0.9
			c-0.7-5-1.2-10-2-14.9c-0.2-1.6-1.7-3-1.7-4.5C32.7,37.9,31,34.2,35.8,35.4z"/>
		<path class="st52" d="M53,19.3c-1.7-0.6-3.3-1.3-5-1.9c-0.3-1.6-0.7-3.2-1.1-5.4c3.6-2.4,7.4-5,11.2-7.6c2.7,1.2,4.9,3.2,3.4,6.1
			c-0.8,1.5-3.5,1.9-5.3,2.8c-2.2-0.9-4-1.2-3.3,2.3C53,16.7,53,18,53,19.3z"/>
		<path class="st55" d="M49,58.7c-1.7,1.4-3.4,2.8-5.1,4.3c-2.7-3.9-1.4-5.9,3.1-6.5C47.6,57.3,48.3,58,49,58.7z"/>
		<path class="st56" d="M97.3,74.2c-1.1-1.8-2.1-2.8-2.4-4.1c-0.1-0.5,1.3-1.4,2-2.1c1,1,2.2,1.9,2.8,3
			C99.9,71.5,98.5,72.7,97.3,74.2z"/>
		<path class="st52" d="M94.6,49.7c-1.7,0.7-3.5,1.4-5.2,2c-2.3-1.3-4.6-2.6-6.9-3.9c0,0.7,0,1.5,0,2.2c-2,2-4,3.9-6.1,5.9
			c-1.3-1.9-2.4-5.1-3.9-5.4c-4-0.6-6.1-3.1-8.3-5.8c-0.6-0.7-1.7-1.1-3-1.8c-0.4,4-0.7,7.3-1,10.5c-1.5-3.2,0.8-8.1-4.1-10
			c1.2-2.5,3.6-5,3.5-7.5c-0.2-4.3,1.1-6.8,5.8-7.5c-5.1-3-5.1-3.3-1.4-7.4c1.5-0.7,2.9-1.5,3.9-1.9c3.7,6.2,7,12.1,10.8,17.7
			c1.3,1.8,4,4,5.9,3.8C91.5,40.3,93.2,44.6,94.6,49.7z"/>
		<path class="st57" d="M64,21.3c-3.7,4.1-3.7,4.4,1.4,7.4c-4.7,0.7-6,3.1-5.8,7.5c0.1,2.4-2.3,5-3.5,7.5c0,1,0,2-0.1,3
			c-3.1,0.3-6.2,0.7-10.2,1.1c0.8-1.6,1.4-2.5,1.7-3.4c0.7-2.7,0.7-4.9-3.2-5.2c-1.5-0.1-3.1-1.9-4.2-3.3c-0.2-0.3,1.4-2.5,2.5-3.3
			c3.9-2.6,5.9-6.8,4.4-9.6c2-1.2,3.9-2.4,5.8-3.6c-0.1-1.3,0-2.6-0.2-3.8c-0.6-3.4,1.1-3.2,3.3-2.3C58.8,15.9,61.4,18.6,64,21.3z"
			/>
		<path class="st58" d="M60.2,53.5c0.3-3.3,0.6-6.6,1-10.5c1.2,0.7,2.4,1.1,3,1.8c2.2,2.7,4.3,5.2,8.3,5.8c1.6,0.2,2.6,3.5,3.9,5.4
			c-0.3,0.3-0.6,0.7-0.9,1c-3.9,0-7.8,0-12.6,0C62.6,56.5,61.4,55,60.2,53.5z"/>
		<path class="st59" d="M75.6,57c0.3-0.3,0.6-0.7,0.9-1c2-2,4-3.9,6.1-5.9c0-0.7,0-1.5,0-2.2c2.3,1.3,4.6,2.6,6.9,3.9
			c-0.7,0.7-1.4,1.4-2.1,2.1c-1.7,1.4-3.5,2.6-5,4.1c-1.3,1.3-2.2,3-3.7,5C77.3,60.4,76.4,58.7,75.6,57z"/>
		<path class="st60" d="M90.4,55.8c2.5,1.6,6.3-2.3,8.1,2C98,59,97.2,61.3,97,61.3c-2.7-0.7-5.4-1.8-8.1-2.8
			C89.4,57.6,89.9,56.7,90.4,55.8z"/>
	</g>
	<g>
		<path class="st61" d="M79.5,42.7c0.8-2.8,1.1-5.9,2.5-8.4c0.7-1.2,3.5-1.2,5.3-1.8c8.3,0.3,16.4,1.5,23.7-5
			c1.9-1.7,7.7-0.1,11.2,1.3c3.2,1.3,5.9,4.1,3.5,8.6c-0.2,0.4,2,2,3,3.1c2.8-2.9,5.5-0.6,8.2,0.2c0.4,0.3,0.7,0.5,1.1,0.8
			c0.8,1.8,1.5,3.7,2.3,5.5c-3.4,1-6.9,1.9-10.3,2.9c-1,0-2,0-3.1,0c-1.3-1.3-2.6-2.5-3.8-3.9c-1.8-2.1-3.4-5.1-6.3-1.2
			c0.2-1.8,0.5-3.6,0.5-5.3c0-1-0.7-1.9-1-2.9c-0.9,0.5-2.2,0.7-2.7,1.5c-0.9,1.4-1.2,3.1-1.8,4.6c-1.6,0.2-3.1,0.4-4.9,0.7
			c0-1.4,0-2.5,0-3.7c-0.9-2.7-1.9-5.4-6.4-4.2c1.1,2.4,2.1,4.5,3,6.5c-0.3,0.5-0.6,1.1-0.9,1.6c-2.3,1-4.6,1.9-7.5,3.1
			c-0.1-0.1-1.2-0.7-2.9-1.6c0.2,2.3,0.3,4,0.5,5.8c-1.5-0.8-2.6-1.4-4.1-2.3c0,1.6,0,2.7,0,3.7c-0.3-0.3-0.7-0.5-1-0.8
			c-1.4,1.1-2.8,2.2-4.2,3.3C82.1,50.8,80.8,46.8,79.5,42.7z"/>
		<path class="st62" d="M126.9,49.9c1,0,2,0,3.1,0c4.5,2.8,4.4,4.9-0.2,7.7c-1.1,0.7-2,1.6-2.9,2.4c-0.3,1.6-0.6,3.1-1,4.7
			c-0.5,0-1,0-1.5,0.2c-1.8,0.6-3.5,1.2-5.2,1.8c0.6,1.6,1.5,3.2,1.8,4.9c0.3,1.3-0.1,2.8-0.1,4.2c0,0.8,0,1.5,0,2.3
			c-0.6,0.4-1.2,1.1-1.8,1.1c-4-0.1-5.6,2.3-3.6,5.8c0.8,1.5,2.1,2.8,3.2,4.2c-1.4,3.7-4.2,5.1-8,4.6c-1-1.4-2-2.8-3-4.3
			c-1-1.5-2-3-3.1-4.6c1.6-4,3.7-8,4.6-12.2c1.1-5.2,5.7-7,8.6-10.4c1.3-1.6,2.8-3.1,5-5.5C127.2,56.6,128.9,54.2,126.9,49.9z"/>
		<path class="st63" d="M137,40.7c-2.7-0.8-5.4-3.1-8.2-0.2c-1.1-1.1-3.2-2.7-3-3.1c2.4-4.4-0.3-7.3-3.5-8.6
			c-3.5-1.4-9.3-3-11.2-1.3c-7.3,6.4-15.4,5.3-23.7,5c5-2.7,6.6-10.1,15.1-8.8c3.9,0.6,8.3-0.3,12.5,1.3c1.3,0.5,3.4-1.3,5.4-2.1
			C126.2,28.2,134.8,31.5,137,40.7z"/>
		<path class="st64" d="M104.7,85c1,1.5,2,3,3.1,4.6c1,1.4,2,2.8,3,4.3c-3.2-0.8-6.4-1.5-9.8-2.3c0.7-1.9,1.1-3.2,1.5-4.6
			c-4.1,1.4-7.9,2.8-12.6,4.4c-0.4-3.9-0.7-6.6-0.9-9.2c-1.8,0-4.2,0-6.7,0c0.8-1.8,1.5-3.6,2.3-5.4c3.9,2.9,3.9-1,4.7-2.8
			c1.7-3.6,7-5.8,10.8-3.6c-1.1,0.5-1.9,1-2.8,1.3c-1.1,0.4-2.3,0.5-3.4,0.9c-3.9,1.5-4.7,4.5-1.3,6.7
			C96.4,81.6,100.7,83.1,104.7,85z"/>
		<path class="st65" d="M126,64.8c0.3-1.6,0.6-3.1,1-4.7c3.5-0.2,4.5,7.1,9.1,2.8c1.1,1.5,2.1,2.8,3.1,4.1c0.6,2,1.3,4.1,1.9,6.1
			c-1.1,1.9-2.1,3.8-3.2,5.7c-0.6,0-1.3,0.1-1.9,0.1c-3.9-1.4-7.9-2.9-9.1,3.2l0,0c-2.6-2.6-2.7-5.1,0-7.8
			C131,70.2,130.7,68.2,126,64.8z"/>
		<path class="st66" d="M118.7,89.2c-1.1-1.4-2.4-2.7-3.2-4.2c-1.9-3.5-0.3-5.9,3.6-5.8c0.6,0,1.2-0.7,1.8-1.1c1.7,3,3.3,6,5,9.1
			c0,0.3,0,0.7,0,1C123.5,88.5,121.1,88.9,118.7,89.2z"/>
		<path class="st67" d="M140.3,47c-0.8-1.8-1.5-3.7-2.3-5.5c3.2-1.3,4.7-0.7,4.4,3.2c-0.1,1.7,0.1,3.8,1.1,5.1
			c3.5,4.6,1.1,8.9-0.2,13.3c-0.2-0.1-0.4-0.2-0.5-0.3C142,57.5,141.2,52.3,140.3,47z"/>
		<path class="st68" d="M78.4,75c1.1-1.7,2.1-3.4,3.2-5.1c0.6,0.4,1.2,0.7,1.8,1.1c0.4,1.9,0.8,3.9,1.3,5.8
			c-0.8,1.8-1.5,3.6-2.3,5.4C75.6,82.8,79.4,77.6,78.4,75z"/>
		<path class="st69" d="M125.9,88.2c0-0.3,0-0.7,0-1c0.3-1.7,0.6-3.4,1-5.1l0,0c3-1.1,6.1-2.2,9.1-3.2c0.6,0,1.3-0.1,1.9-0.1
			c-2.3,2.8-4.3,5.9-6.9,8.3C129.9,88.1,127.6,87.9,125.9,88.2z"/>
		<path class="st70" d="M141.1,73.1c-0.6-2-1.3-4.1-1.9-6.1c1.2-1.4,2.5-2.8,3.7-4.2c0.2,0.1,0.4,0.2,0.5,0.3
			c-2.1,3.4-1.5,5.9,4,7.6C144.4,71.8,142.7,72.4,141.1,73.1z"/>
		<path class="st71" d="M84.7,76.8c-0.4-1.9-0.8-3.9-1.3-5.8c1-3.4,1.9-6.9,2.9-10.3c1-0.9,2.1-1.9,3.1-2.8c1.6,0.4,3.1,1.2,4.7,1.2
			c1.4,0,4-0.6,4.1-1.2c0.9-4.9,5.5-8.8,4.4-14.3c0.3-0.5,0.6-1.1,0.9-1.6c1.1-0.8,2.2-1.5,3.4-2.3c0,1.1,0,2.3,0,3.7
			c1.8-0.2,3.4-0.5,4.9-0.7c2.8,4,2.8,4,5.1,2.1c3-3.9,4.5-0.9,6.3,1.2c1.2,1.4,2.5,2.6,3.8,3.9c2,4.3,0.2,6.7-4.1,7.1
			c-2.1,2.3-3.6,3.8-5,5.5c-2.9,3.4-7.5,5.2-8.6,10.4c-0.9,4.2-3,8.1-4.6,12.2c-4-1.9-8.3-3.4-12-5.8c-3.3-2.1-2.6-5.2,1.3-6.7
			c1.1-0.4,2.3-0.5,3.4-0.9c0.9-0.3,1.7-0.8,2.8-1.3c-3.7-2.1-9.1,0-10.8,3.6C88.6,75.8,88.6,79.8,84.7,76.8z"/>
		<path class="st72" d="M102.5,43.5c1.1,5.5-3.4,9.4-4.4,14.3c-0.1,0.7-2.7,1.2-4.1,1.2c-1.6,0-3.1-0.7-4.7-1.2c-2-1-4-2-6-3
			c1.4-1.1,2.8-2.2,4.2-3.3c0.3,0.3,0.7,0.5,1,0.8c0-1.1,0-2.1,0-3.7c1.5,0.9,2.6,1.5,4.1,2.3c-0.1-1.9-0.3-3.5-0.5-5.8
			c1.7,0.9,2.7,1.5,2.9,1.6C98,45.5,100.2,44.5,102.5,43.5z"/>
		<path class="st73" d="M142.8,62.8c-1.2,1.4-2.5,2.8-3.7,4.2c-1-1.3-2-2.6-3.1-4.1c-4.6,4.3-5.6-3-9.1-2.8c1-0.8,1.9-1.8,2.9-2.4
			c4.6-2.8,4.6-4.9,0.2-7.7c3.4-1,6.9-1.9,10.3-2.9C141.2,52.3,142,57.5,142.8,62.8z"/>
		<path class="st74" d="M116.8,44.8c-2.3,1.9-2.3,1.9-5.1-2.1c0.6-1.6,1-3.2,1.8-4.6c0.5-0.8,1.8-1,2.7-1.5c0.4,1,1,1.9,1,2.9
			C117.3,41.2,117,43,116.8,44.8z"/>
		<path class="st72" d="M106.8,39.6c-1.1,0.8-2.2,1.5-3.4,2.3c-1-2.1-1.9-4.1-3-6.5C104.9,34.3,105.9,36.9,106.8,39.6z"/>
		<path class="st73" d="M126.9,82.1c-0.3,1.7-0.6,3.4-1,5.1c-1.7-3-3.3-6-5-9.1c0-0.8,0-1.5,0-2.3c0.1-1.4,0.4-2.8,0.1-4.2
			c-0.3-1.7-1.2-3.3-1.8-4.9c1.7-0.6,3.5-1.3,5.2-1.8c0.5-0.2,1-0.1,1.5-0.2c4.7,3.5,5,5.4,0.9,9.5C124.2,77,124.3,79.5,126.9,82.1z
			"/>
		<path class="st73" d="M136,78.8c-3,1.1-6.1,2.2-9.1,3.2C128.1,75.9,132.1,77.5,136,78.8z"/>
		<path class="st75" d="M86.3,60.7c-1,3.4-1.9,6.9-2.9,10.3c-0.6-0.4-1.2-0.7-1.8-1.1C81.6,66.1,80.9,61.9,86.3,60.7z"/>
	</g>
	<path class="st2" d="M111,109c-2.1-0.8-4.4-1.4-6.2-2.6c-2.6-1.7-3.5-0.7-3.9,1.8c-5.6-0.6-5.1,3.1-4.8,6.8c-2.9-2.9-3-11.2-0.2-14
		c4.1-4.1,4.4-6.2,1.2-10.2c-1.3-1.5-2.3-3.3-3.9-4.4c-5.9-4-6-3.9-2.3-9.7c0.7,0.3,1.4,0.7,2.1,1c2.7,0.3,5.3,0.5,8,0.8
		c1-1.9,1.9-3.7,2.9-5.6c2.4,0.6,4.8,1.6,7.3,1.9c3.7,0.4,5.1,2.5,5.1,5.9c0.5,2.3,1,4.7,1.4,6.5c-2.3,0.5-5,0.4-5.6,1.4
		c-0.7,1.3,0.5,3.6,0.7,5.4c0.1,1.8,0.7,4.4-0.2,5.4C109.6,102.4,109.8,105.4,111,109L111,109z"/>
	<path class="st76" d="M136.1,107.9c-0.3,0.6-0.5,1.2-0.8,1.8c-0.3,0.6-0.7,1.1-1.4,2.2c-1.1-1.2-1.9-2-2.7-2.9
		c0.6-1.8,2.2-4.5,1.6-5.1c-2.4-2.4-5.2-4.8-8.4-6.1c-2.9-1.2-4.7,1.3-3.8,3.9c1.3,3.6,3.6,6.9,5.5,10.3c-2.4,3-4,3.4-5-1
		c-0.5-2.3-1.8-4.4-3-7.1c-2.8,2-5,3.5-7.2,5.1c-1.3-3.4-1.5-6.5,1.4-9.6c0.9-1,0.3-3.6,0.2-5.4c-0.2-1.9-1.4-4.1-0.7-5.4
		c0.5-1,3.3-0.9,5.6-1.4c-0.4-1.8-0.9-4.2-1.4-6.5c5.5,0.9,11.9,7.4,14.8,12.2c1.3,2.2,0.9,5.4,4,7.2
		C136.3,100.9,135.8,105.2,136.1,107.9z"/>
	<path class="st77" d="M90.8,76.6c-3.7,5.8-3.7,5.7,2.3,9.7c1.6,1.1,2.6,2.9,3.9,4.4c-3.1,9.7-9.3,11.4-16.4,4.5
		c-0.2-0.2-0.6-0.3-0.9-0.5c-2.4-3.4-4.8-6.9-7.2-10.3c4.9-3.4,9.7-7,14.7-10.2C87.7,74,89.6,75.8,90.8,76.6z"/>
	<path class="st78" d="M89.3,101.3c3.6,1.3,7.2,2.6,11.4,4.1c-2.9,4.7-6.1,6.6-10.4,7c-2.6-1.8-5.1-3.7-7.7-5.5
		c2-1.7,3.3-2.8,4.6-3.9C87.9,102.4,88.6,101.9,89.3,101.3z"/>
	<path class="st31" d="M89.3,101.3c-0.7,0.5-1.4,1.1-2.1,1.6c-2.2,0-4.3,0-6.4,0c0.4-3,0.8-5.2,1.1-7.4c2.6-0.8,7.2,0.2,5.2-5.2
		c2,0.3,4.1,0.6,6.1,0.9c-0.1,1.6,0.2,3.5-0.5,4.9C92,98,90.5,99.6,89.3,101.3z"/>
	<path class="st79" d="M82,95.5c-1-0.4-2-0.8-3.1-1.2c1.1-4.7,4.6-4.5,8.3-4C89.1,95.8,84.6,94.7,82,95.5z"/>
	<g>
		<g id="XMLID_1_">
			<g>
				<path class="st80" d="M122.4,87.3c-0.1,0.4-0.3,0.7-0.4,1.1c-2-0.8-4.1-1.5-6.1-2.3c-1.8-0.7-3.4-1.1-3,1.8
					c-0.4,0.4-0.8,0.8-1.2,1.2c-4.7-3.7-9.5-7.4-14.2-11.1c0-1.1,0.1-2.1,0.1-3.2C105.8,78.9,114.1,83.1,122.4,87.3z"/>
				<path class="st81" d="M112.9,87.8c2.2,1.9,4.3,3.8,6.5,5.7c-0.9,0.8-2,1.9-3.2,3c-1.5-2.5-2.9-5-4.4-7.6
					C112.1,88.6,112.5,88.2,112.9,87.8z"/>
				<path class="st82" d="M117,55.3c-0.7,0.2-1.5,0.3-2.2,0.4c-1.7-1-3.5-2-5.2-3c-0.6-1.7-1.3-3.3-1.9-5c1.9-2.8,3.9-5.7,5.8-8.5
					c0.4,0.2,0.8,0.4,1.2,0.5c-0.5,1.6-1.1,3.3-1.7,5.2c1.4-0.4,2.8-0.7,5-1.3C116,47.6,105.6,49.4,117,55.3z"/>
				<path class="st83" d="M107.7,47.7c0.6,1.7,1.3,3.3,1.9,5c-3.9,0.1-7.8,2.3-10.7,5.5l-0.7-0.7C101.4,54.3,104.5,51,107.7,47.7z"
					/>
				<path class="st84" d="M99.3,101.2c3,2.2,6.7,3.2,10.7,5c-3.5-0.4-6.5-0.7-9.4-1c0.6,3.4,1,6.1,1.4,8.8c-0.6,0.2-1.2,0.4-1.8,0.6
					c-2.9-4.7-2.1-12-9.7-14.1c-0.7,2.8-1.3,5.5-2,8.3c-0.4-6.5,0.7-13.5-7.1-16.8c1.6-0.7,3.3-1.3,4.9-2
					C90.7,93.7,94.7,97.9,99.3,101.2z"/>
				<path class="st82" d="M101.1,30.5c1.4,0,2.8,0,4.5,0c-3.5,2.2-6.7,4.1-9.9,6.1c-0.8-0.4-1.5-0.8-2.3-1.2c0.4-2.5,0.5-5,1.2-7.4
					c0.4-1.3,1.7-2.4,2.6-3.6c0.4,0.3,0.7,0.5,1.1,0.8c-0.9,1.9-1.9,3.7-2.8,5.6c0.3,0.2,0.7,0.4,1,0.6c1.5-1.7,2.9-3.5,5-6
					C101.3,27.5,101.2,28.8,101.1,30.5z"/>
				<path class="st83" d="M98.2,57.6l0.7,0.7c-3.7,4.1-5.8,9.9-4.3,14.5c-1.7-2-3.5-3.9-5.2-5.9C92.3,63.7,95.3,60.7,98.2,57.6z"/>
				<path class="st85" d="M97.6,74.8c-0.1,1.1-0.1,2.1-0.1,3.2c-7.9-2-10.9-1.2-14.2,3.9c-1-2-1.9-4-2.9-6c1-1.4,1.9-2.9,2.9-4.3
					c2-1.6,4.1-3.2,6.1-4.7c1.7,2,3.5,3.9,5.2,5.9C95.6,73.4,96.6,74.1,97.6,74.8z"/>
				<path class="st86" d="M93.3,35.4c0.8,0.4,1.5,0.8,2.3,1.2c-2.3,3.4-4.4,6.8-6.8,10c-2,2.8-4.3,5.4-6.5,8.1
					c-0.3-1.7-0.6-3.5-0.9-5.2C87.5,46.6,90.9,41.4,93.3,35.4z"/>
				<path class="st87" d="M83.2,81.9c1.1,2.7,2.2,5.4,3.2,8.1c-1.6,0.7-3.3,1.3-4.9,2c-1.4-1.3-2.9-2.6-4.3-3.9c-1-1-2-2-3-3
					c0.5-2.8,1-5.6,1.5-8.5c-0.6-0.2-1.1-0.4-1.7-0.6l0.8-2.5c1.5,0.2,3.2,1,5.5,2.4C81.3,77.9,82.2,79.9,83.2,81.9z"/>
				<path class="st88" d="M83.2,71.5c-1,1.4-1.9,2.9-2.9,4.3c-2.2-1.4-4-2.2-5.5-2.4c-2.6-0.3-4.4,1.3-6.7,5.3
					c-0.4,0.7-0.7,1.5-1,2.3c-2.5,1-4.9,2.2-7.5,2.8c-1.1,0.3-2.5-0.6-3.8-0.9c1.1-2.1,2-3.9,5.2-4.2c4.3-0.3,4.9-3.8,2-8.8
					c1.5,0.1,3.1,0.5,4.6,0.4c1.9-0.2,3.8-0.8,5.7-1.2c6.5-6.6,5.9-14.3,3.9-22.4c1-1,2-2,2.9-3c0.4,1.9,0.8,3.9,1.2,5.8
					c0.3,1.7,0.6,3.5,0.9,5.2c-0.5,4.4-1.3,8.8-1.5,13.2C80.8,69.1,82.4,70.3,83.2,71.5z"/>
				<path class="st89" d="M79.2,18.1c1.3,2.4,2.7,3.8,2.6,5.1c-0.3,6.8-1,13.7-1.6,20.5c-1,1-2,2-2.9,3c-3.4-5.7-6.8-11.4-10.3-17.1
					c1.3,1.3,2.7,2.7,4,4c1.5,1.9,2.9,3.9,5.2,6.9C79.7,33,77.3,26.1,79.2,18.1z"/>
				<path class="st90" d="M74.2,85c1,1,2,2,3,3c-0.6,1.3-1.6,2.6-1.7,4c-0.3,6.7-0.6,13.4-0.2,20.1c0.2,3.4,1.9,6.7,2.5,10.5
					c-1.2-1.5-2.3-3-4.3-5.5c-1.4,2.2-2.5,4-3.8,6.1c0.9-6.8,1.6-12.8,2.4-18.8c-1-1.1-2-2.2-3.1-3.3c0.3-3,0.9-6,0.9-9
					c0-2.7-0.5-5.5-0.8-8.2l0.7-2.1c0.1,0,0.3,0.1,0.4,0.1C71.5,83,72.9,84,74.2,85z"/>
				<path class="st88" d="M75.7,76.5c-0.5,2.8-1,5.6-1.5,8.5c-1.3-1-2.7-2-4-3c1.2-2,2.4-4,3.6-6.1c0.1,0,0.2,0.1,0.3,0.1
					C74.6,76.2,75.1,76.3,75.7,76.5z"/>
				<path class="st87" d="M74.9,73.4L74,76c-0.1,0-0.2-0.1-0.3-0.1c-1.2,2-2.4,4-3.6,6.1c-0.1,0-0.3-0.1-0.4-0.1
					c-0.9-0.3-1.7-0.5-2.6-0.8c0.3-0.8,0.6-1.6,1-2.3C70.5,74.8,72.3,73.1,74.9,73.4z"/>
				<path class="st82" d="M73.9,19.2c-1,4.8-2,9.5-2.9,14.3c-1.3-1.3-2.7-2.7-4-4c-1.5-3.2-3-6.3-4.5-9.5c0.7-0.3,1.3-0.6,2-0.9
					c1.2,2.5,2.4,5,4,8.5c1.8-3.2,3.3-5.9,4.7-8.5C73.5,19.1,73.7,19.2,73.9,19.2z"/>
				<path class="st91" d="M69,101.1c1,1.1,2.1,2.2,3.1,3.3c-3,4.3-6,8.6-9.1,12.9c-1.1,1.5-2.1,3.1-3.4,4.9c-2-3.5,4.1-6.3,0.5-9
					C63,109.4,66,105.3,69,101.1z"/>
				<path class="st90" d="M67.2,81c0.9,0.3,1.7,0.6,2.6,0.8l-0.7,2.1c-2.6,1.1-5.4,2-7.9,3.4c-4.2,2.4-8.2,5.1-12.3,7.7
					c-1-0.3-2-0.7-3-1c0.9-0.7,1.8-1.4,2.8-2.2c-10.6-3.6-16-2.6-20.4,3.3c-1.6-0.9-2.9-1.7-4.9-2.8c3.2-1.6,6-3,8.8-4.4
					c0-0.4,0-0.9,0.1-1.3c-3.9-1.2-7.8-2.5-11.6-3.7c0.1-0.5,0.2-1,0.3-1.5c2.6,0.5,5.5,0.4,7.8,1.6c9.2,4.6,18.2,5.8,27.2-0.2
					c1.3,0.4,2.7,1.2,3.8,0.9C62.3,83.2,64.7,82,67.2,81z"/>
				<path class="st92" d="M73.3,69c-1.9,0.4-3.8,1-5.7,1.2c-1.5,0.2-3-0.2-4.6-0.4c-1.2-2.5-2.9-4.9-3.6-7.5
					c-2.3-9.4-8.6-16-15.1-22.5c-1.2-1.2-2.1-2.8-3.1-4.2c0.5-0.4,0.9-0.8,1.4-1.2c2.9,3,5.7,6.1,8.6,9.1c2.3,2.4,4.6,4.8,6.9,7.2
					c1,0.6,1.9,1.3,2.9,1.9C62.2,62.9,65.9,67.9,73.3,69z"/>
				<path class="st93" d="M62.6,30.1c-0.5,7.5-1.1,15-1.6,22.4c-1-0.6-1.9-1.3-2.9-1.9c0.2-1.5,0.3-3,0.6-4.4c0.7-3.4,0.5-6.3-2-9.3
					c-3.3-4-6.3-8.5-5.1-15c2.3,4.8,4.3,9.1,6.3,13.4c0.5-0.2,1.1-0.4,1.6-0.6c0.4-1.6,0.8-3.2,1.3-4.8C61.4,30,62,30.1,62.6,30.1z"
					/>
				<path class="st94" d="M48.9,95.1c-3.6,4.6-7.1,9.2-10.7,13.7c0.1-2.1,0.3-4.2,0.4-6.8c-2.6,1.2-4.9,2.2-7.1,3.3
					c-0.3-0.4-0.6-0.8-0.9-1.3c3.6-2.5,7.3-5,11.3-7.7c-0.7-0.6-1.4-1.2-2.5-2.2c2.6,0,4.6,0,6.6,0C46.9,94.4,47.9,94.8,48.9,95.1z"
					/>
				<path class="st82" d="M55,77c-3.7-1-7.5-3-11.1-2.7c-3.8,0.3-7.3,3.2-11.2,4.2c-3.4,0.8-7.1,0.5-10.7,0.3
					c3.7-0.3,6.4-4.2,10.9-2.4c1.2,0.5,3.6-1.7,5.4-2.6c-0.2-0.5-0.3-0.9-0.5-1.4c-5.8-1.1-11.6-2.2-17.4-3.2
					c0.1-0.5,0.2-0.9,0.3-1.4C32.3,70.1,44.9,68.5,55,77z"/>
				<path class="st94" d="M37.6,109.6c0.2-0.3,0.4-0.5,0.6-0.8c0,0.6-0.1,1.1-0.1,1.7C37.9,110.2,37.8,109.9,37.6,109.6z"/>
			</g>
			<g>
			</g>
		</g>
	</g>
</g>
</svg>
