<?xml version="1.0" encoding="utf-8"?>
<!-- Generator: Adobe Illustrator 21.1.0, SVG Export Plug-In . SVG Version: 6.00 Build 0)  -->
<svg version="1.1" id="圖層_1" xmlns="http://www.w3.org/2000/svg" xmlns:xlink="http://www.w3.org/1999/xlink" x="0px" y="0px"
	 viewBox="0 0 512 512" style="enable-background:new 0 0 512 512;" xml:space="preserve">
<style type="text/css">
	.st0{fill:#A5DCFF;}
	.st1{fill:#D8E5B3;}
	.st2{fill:#FFDAB9;}
	.st3{fill:#CCEBFF;}
	.st4{fill:#FFADA9;}
	.st5{fill:#F5F6FA;}
	.st6{fill:#AF9494;}
	.st7{fill:#ACE6FC;}
</style>
<path class="st0" d="M476.8,74.2l-337,11.5l8.1,322l-1.7,20.2l-34.6,17.9c0,0-37.4,0-39.2,0c-1.7,0-10.9-15.6-10.9-15.6l-1.7-14.4
	l-18.4,16.7l1.7,20.2l24.8,10.9l72.6-1.2l301.3,2.3l39.7-3.5L482,429l-8.6-175.7l2.9-110L476.8,74.2z"/>
<path class="st1" d="M370.8,5.1l-129.1,6.4L427.4,187l3.4-119.8l0.5-60.1L370.8,5.1z M392.7,90.8c-2.5,3.9-7.8,4.7-11.2,1.4
	c-7.7-7.3-15.1-14.9-22.7-22.2c-4-3.8-8.1-7.4-12.5-10.7c-3.9-2.9-8.1-5.4-11.1-9.3c-3.1-4-2.3-9.8,3-11.4c4.2-1.3,8.6-1.1,12.9-0.7
	c4.4,0.5,8.7,0.4,13.1,0.4c4.1,0,8.6-0.1,13,0.5c1.6-0.3,3.1-0.7,4.5-1c4-1.1,8.2,1.4,9.4,5.3c2.3,8.3,2.8,17,3.9,25.5
	C396.1,76.1,396.8,84.3,392.7,90.8z"/>
<path class="st2" d="M140.4,462.4L438.2,353l17.3,47.8l-299,107.7L140.4,462.4z"/>
<path class="st0" d="M62.6,438.3c-0.7-17.1,20.3-13.8,30.5-11.5c4.5,1,7.5,5,10.4,0.2c2.1-3.4,1.3-17.5-0.5-21.5
	c11.4,0.1,31.6-7.3,39.4,3.6c7.8,10.9,2.1,18.7-7.9,24.7c-14.9,8.8-28.2,16.4-46.3,17.2c-4.8,0.2-12,1-16.5-1.6
	C67.5,446.9,64.7,438.6,62.6,438.3z"/>
<path class="st3" d="M141,44.2c0,1.7-1.7,233.9-1.7,233.9l8.6,129.6c0,0-23.6-11.5-41.5-6.9c-17.9,4.6-53.6,12.1-59.9,23.6
	s-6.9,16.1-6.9,16.1L35,406l-4-127.9l-4-186.6L39,33.3l32.8-21.9l37.4-1.1l21.9,13.2L141,44.2z"/>
<path class="st3" d="M62.5,416.7c-0.1,4.1-1.2,8.2-0.6,12.3c0.1,0.5,0.2,2,0.9,2.4c1.1,0.6,4.9-2.9,5.7-3.3c4.7-2.8,10.2-4,15.7-3.8
	c3.9,0.1,7.6,0.1,11.2,1.8c1.3,0.6,2.6,1,3.8,1.7c0.4,0.2,1.2,1,1.7,1c2.1,0,2.3-6.1,2.5-7.1c0.9-5.6,1.6-12.3,0.3-18
	c-1.6-0.2-3.6,0.5-5.2,0.7c-3.4,0.5-6.6,1-9.9,1.9c-4.4,1.3-8.8,2.3-13.1,3.5c-4.1,1.1-6.9,3-10,5.7"/>
<path class="st4" d="M307.2,113l101.2,72l11.8,11l-15.4,20.3l-90.7-76l-13,0.4l-115,74.4l-9.4-15.9l39-27.2l65.4-42.7L307.2,113z"/>
<path class="st5" d="M306.7,138.2c0.8,0,60.5,41.8,60.7,42.9c0.3,1.1,25.1,23.7,25.1,23.7l-4.7,129l-178-0.6l-0.8-133.7L306.7,138.2
	z"/>
<path class="st6" d="M276.9,262.3c0.7,0.2,44.5,1.5,44.5,1.5l0.2,70.8l-46.7-0.2L276.9,262.3z"/>
<path class="st6" d="M215.1,121.3l34.4-0.2l0.9,28.7L215.7,172L215.1,121.3z"/>
<path class="st7" d="M257.1,193.5l91.6,2.7l-3.6,39.7l-86.5-2.5L257.1,193.5z"/>
<path d="M488.6,430.3c-2.5-21.4-4.6-42.9-6.1-64.5c-5.9-86-3.8-172.3-0.8-258.3c0.4-10.8,0.8-21.6,1.2-32.4c0.1-3.4-3.1-6.6-6.5-6.5
	c-13.6,0.5-27.2,0.9-40.8,1.4c0.2-10.7,0.5-21.3,0.9-32c0.3-9.1,0.3-18.2,1.1-27.3c0.1-0.9,0.1-1.9,0-3c-0.2-2-0.8-4.1-2.4-5.2
	c-2.1-1.5-5.3-0.8-7.8-1c-4.7-0.3-9.4-0.5-14.1-0.7c-9-0.4-18-0.7-27-0.8c-16.7-0.3-33.4-0.1-50.1,0.1c-16.3,0.3-32.6,0.7-48.9,1.3
	c-15.4,0.6-30.9,1.4-45.9,5.3c-3.3,0.8-5.8,5.5-3.5,8.5c9.8,12.8,21.3,23.8,33,34.9c8.6,8.1,17.1,16.3,25.7,24.4
	c-26.3,0.8-52.6,1.7-78.9,2.5c-24.2,0.8-48.4,1.5-72.6,2.3c0.3-12.2,0.7-24.6-2.1-36.7c-2.7-11.9-9.3-22.6-19.8-29.1
	c-9.5-5.9-21.2-7.9-32.3-7.4c-23.6,1-50.7,11.6-61.2,34.2C24,53.2,23.5,67.4,23,81.2c-0.5,15.8-0.8,31.5-0.9,47.3
	c-0.3,32.2,0.1,64.4,1,96.7c1,36.3,2.6,72.7,4.4,109c1.6,31.9,2.3,63.9,5.7,95.7c0.5,4.5,0.6,9.2,1.9,13.5c0.4,1.1,0.8,2.2,1.2,3.3
	c0.4,0.9,0.7,1.8,1.1,2.6c7.6,16.2,28.3,15.8,43.6,16.6c17.8,1,35.7,1.4,53.6,1.6c2,6.2,4.1,12.3,6.2,18.5c2.2,6.3,3.9,13.1,6.9,19
	c6.8,13.4,23,4,33.4,0.6c28.2-9.4,56.4-18.8,84.6-28.3c8.5-2.9,16.9-5.7,25.4-8.6c17.2,0.2,34.5,0.4,51.7,0.5c22,0.3,44,0.6,66,0.8
	l33,0.4c10.2,0.1,20.8,1.1,31,0.2c8.2-0.8,15.1-5.2,17.2-13.5C492.1,448.5,489.6,439,488.6,430.3z M298,43.2c-3,0.8-4.9,3.3-6.9,5.5
	c-0.7,0.8-1.6,1.8-2.3,2.7c-2.9-2.8-5.9-5.5-8.8-8.3c2.1-2,4.2-4.1,6.3-6.2c2.7-2.7-0.8-7.7-4.2-5.4c-2.8,1.9-5.2,4.1-7.4,6.6
	c-7.4-7.1-14.8-14.3-21.4-22.1c12.2-2.2,24.6-2.9,37-3.5c16-0.7,32-1.3,48-1.7c16-0.4,32-0.5,48-0.8c13.2-0.2,26.4,0,39.5-0.7
	c-2.7,56.3-3.7,112.8-2.4,169.1c-0.9-0.8-1.9-1.7-2.8-2.5c-4-3.7-8-7.5-12-11.2c-2.7-2.6-5.5-5.2-8.2-7.8c1.3-0.8,2.5-1.8,3.7-2.7
	c2.1-1.6,4.2-3.1,5.1-5.7c0.9-2.6-1.8-4.4-4-4c-2.6,0.5-4.6,2.7-6.4,4.4c-1.1,1.1-2.2,2.2-3.2,3.4c-2.9-2.7-5.8-5.5-8.7-8.2
	c2.7-2.6,5.8-4.6,7.6-8.2c1.3-2.6-1.5-6.2-4.3-4.3c-2,1.4-3.4,2.8-4.8,4.7c-0.9,1.3-1.6,2.7-2.5,4c-3.5-3.3-6.9-6.5-10.4-9.8
	c2.7-2.4,6.3-4,7.3-7.7c0.5-1.6-0.8-3.4-2.6-3.4c-4.4,0.1-6.6,3.9-8.9,7.1c-3.1-2.9-6.2-5.9-9.4-8.8c0.6-0.4,1.2-0.9,1.8-1.3
	c2-1.4,4.1-2.8,4.7-5.2c0.7-2.6-1.6-4.6-4.1-4.1c-2.4,0.5-3.8,2.6-5.2,4.4c-0.5,0.7-1.1,1.4-1.6,2c-3-2.9-6.1-5.8-9.1-8.6
	c0.8-0.7,1.6-1.3,2.4-2c1.7-1.3,3.1-2.4,4.4-4.1c2.1-2.8-1.9-6.3-4.6-4.6c-2.7,1.7-4.4,4.3-6.4,6.7c-1.1-1-2.2-2.1-3.3-3.1
	c-1.6-1.5-3.1-2.9-4.7-4.4c0.8-0.6,1.7-1.2,2.6-1.8c2.1-1.4,4-2.5,4.1-5.3c0.1-1.8-1.5-3-3.2-3.2c-2.5-0.3-4,1.9-5.5,3.5
	c-0.8,0.9-1.6,1.7-2.5,2.6c-2.8-2.7-5.7-5.4-8.5-8.1c0.6-0.5,1.3-1,2-1.5c1.8-1.4,3.2-2.8,4.5-4.7c1.9-3-1.9-6.7-4.9-4.9
	c-2,1.2-3.3,2.6-4.7,4.4c-0.6,0.7-1.1,1.4-1.6,2.1c-3-2.8-5.9-5.6-8.9-8.4c1.1-0.8,2.1-1.6,3.2-2.5c1.9-1.6,4.2-3.7,4.7-6.3
	c0.3-1.6-0.7-3.3-2.5-3.3c-2.9,0-5.3,2-7.2,3.9c-1.1,1.1-2.1,2.2-3,3.4c-2.5-2.4-5-4.7-7.5-7.1c0.9-0.8,1.7-1.6,2.5-2.3
	c2.1-2,4.6-4.1,5.3-7.1C302.6,44.9,300.4,42.6,298,43.2z M384.3,329.3c-0.5,0.6-5.3,0.5-6.1,0.6c-3.4,0.3-6.8,0.5-10.2,0.7
	c-7.1,0.4-14.3,0.7-21.4,0.8c-6.7,0.1-13.4,0.2-20.1,0.2c0.5-7.3,0.1-14.9,0.1-22.1c0.1-9.5,0.1-19,0-28.5c0-4.7,0.2-9.5-0.1-14.3
	c-0.2-2.6-0.7-5.1-3-6.6c-2.7-1.8-7.2-1.1-10.1-1.2c-4.6-0.1-9.3-0.2-13.9-0.3c-4.6-0.1-9.3-0.2-13.9-0.3c-3.3-0.1-8-1-11.1,0.4
	c-3.1,1.4-3.1,4.4-3.2,7.4c-0.1,4.7-0.1,9.4-0.1,14.1c0,9.4-0.2,18.8-0.1,28.2c0.1,7.3-0.2,14.9,0.5,22.2c-3.1-0.1-6.2-0.1-9.3-0.2
	c-14.1-0.3-28.2-0.6-42.2-0.9c-1.7,0-3.4-0.1-5.2-0.1c-0.3,0-0.7,0-1,0c-0.4-0.1-0.8-0.2-1.1-0.2c-0.4-2.8,0-6.1-0.1-8.9
	c-0.2-7.1-0.4-14.2-0.5-21.4c-0.6-31.1,0.5-62.4-1.2-93.4c1.7-1.1,3.5-2.2,5.2-3.3c20.6-13.2,40.9-27,60.8-41.3
	c4.8-3.4,9.5-6.9,14.3-10.4c4.5-3.3,10.1-8.3,16.1-8c5.4,0.3,10.4,5,14.5,8c4.8,3.5,9.6,7.1,14.4,10.7c17.5,13.5,34.4,27.9,50.4,43
	c1.9,26.5,3.1,52.7,1.7,79.3c-0.8,14.2-2.4,28.3-4.1,42.3C384.8,324.7,384.2,329.5,384.3,329.3z M318.2,331.6
	c-13.4-0.1-26.8-0.4-40.2-0.7c1.4-9.9,0.9-20.5,1.1-30.4c0.1-5.7,0.1-11.4,0.2-17.1c0.1-5.4-0.7-11.8,0-17.4c1.5,0,3.6,0.3,4.5,0.3
	l5.9,0.1c4.6,0.1,9.3,0.2,13.9,0.3c4.5,0.1,9.4,0.7,13.9,0.3c0.5,0.1,0.8,0.1,1.1,0.1c0,1.2,0,2.4,0,3.6c0,2.4,0,4.8,0,7.1
	c0,9.5,0,19,0,28.5C318.6,314.6,317.8,323.3,318.2,331.6z M377.3,184.5c-10.4-9.2-21.1-18-32-26.5c-4.8-3.7-9.6-7.3-14.4-10.9
	c-5.3-3.9-10.7-8.6-16.8-11.1c-12-4.8-22.3,4.7-31.3,11.3c-22.9,16.8-46.4,33-70.3,48.3c-5.8,3.7-11.6,7.4-17.4,11
	c-1.3,0.8-7,5.3-8.3,5.2c-1.6-0.2-1.9-1.8-2.7-3.4c-0.5-0.9-2.9-4.3-2.8-5.3c0.1-2.8,5.6-5.1,7.7-6.5c3.4-2.3,6.8-4.6,10.2-6.9
	c12.9-8.7,26-17.3,39-26c4.5-3,9-6.1,13.5-9.1c3.9-2.7,7.9-5.4,11.9-8c7-4.7,14-9.5,21-14.2c6.1-4.1,11.4-9,17.4-13
	c2.1-1.4,3-2.4,5.6-1.3c2.2,0.9,4.2,2.7,6.2,3.9c8.3,5.3,16.5,10.8,24.6,16.5c16.2,11.3,32.1,23,47.8,35c7.9,6,15.7,12,23.5,18
	c1.5,1.1,3.1,2.3,4.5,3.6c2.7,2.8,1.6,3.8-0.5,6.7c-1.6,2-3.4,3.9-5,5.8c-0.9,1.1-1.9,2.6-3,3.7c-2.1-1.5-4.4-4.6-5.8-6
	C392.2,198,384.9,191.1,377.3,184.5z M218.9,124.3c4.2-0.2,8.5-0.4,12.7-0.4c4.5,0,10.1-0.5,14.8,0.3v0.1c-0.1,1.6,0,3.3,0,4.9
	c0,2.9-0.1,5.9-0.1,8.8c-0.1,3.5-0.3,7.1-0.1,10.6c-5,3.4-10.1,6.8-15.1,10.2c-4.2,2.8-8.5,5.7-12.7,8.5
	C220.3,153.2,220.1,138.7,218.9,124.3z M64.4,418.9c4.2-2.5,8.6-4.5,13.2-6.1c7.3-2.6,14.9-4.2,22.6-5.1c-0.3,2.8,0.1,5.8,0.3,8.5
	c0.1,2.4,0.3,4.9,0.6,7.3c-10.9-6.9-25.3-6.9-36.2,0.8C65,422.4,64.9,420.6,64.4,418.9z M81.4,427.7c4.4-0.5,9,0.1,13.2,1.6
	c2.1,0.7,3.9,1.8,5.8,2.8c1.9,1,6.9,0.9,7.5-1.6c1.1-4.7,1.4-9.5,1.7-14.4c0.1-3,0.7-6.3,0.2-9.3c4-0.2,8-0.2,11.9-0.1
	c6.8,0.2,16.4,0.4,20.2,7.2c4,7.2-5.4,13.7-10.5,17.1c-12.9,8.5-28.2,12.9-43.7,12.6c-5.7-0.1-16.4-0.1-20.1-5.5
	C63.9,432.2,77.5,428.1,81.4,427.7z M41.1,426.8c-0.3-25.4-2.4-50.9-3.5-76.2c-1.4-30.8-2.6-61.7-3.5-92.5
	c-1.7-60.7-2.3-121.7,0.6-182.4c0.6-13,1.8-27.5,10.4-38c7.4-9.1,18.6-14.3,29.7-17.3c21.2-5.7,48.3-3.1,56,20.9
	c3.7,11.4,3.2,23.7,3,35.5c-0.3,15.7-0.5,31.3-0.6,47c-0.2,30-0.1,60,0.5,90c0.6,34.1,1.7,68.1,3.3,102.2c1.3,28,2.2,56.1,5.4,84
	c-10.8-6.1-26.5-4.6-37.8-3.6c-16.8,1.6-33.9,5.9-48,15.5C51.3,415.6,45.3,420.8,41.1,426.8z M179.9,493.9c-3.2,1.1-6.4,2.1-9.6,3.2
	c-2.7,0.9-7.7,3.6-10.5,3.5c-2.8-0.2-3.1-3.7-4-6.2c-1.2-3.5-2.4-7-3.6-10.5c-1.9-5.7-3.9-11.4-5.7-17.2c6.7-2.8,13.4-5.6,20.1-8.4
	c0.3,0.9,0.6,1.7,0.9,2.6c1.1,3.1,2.2,6.4,4.2,9.1c2.2,2.9,6.2,1.2,5.7-2.4c-0.5-3.3-2.1-6.4-3.5-9.4c-0.4-0.8-0.8-1.7-1.2-2.5
	c3.3-1.3,6.5-2.7,9.8-4c1.6,4.7,2.2,9.8,5.5,13.7c1.3,1.5,3.8,0.6,4.2-1.1c1.6-5.6-1.4-10.3-4.6-14.6c4.3-1.7,8.5-3.4,12.8-5.1
	c1.5,5.2,2.1,11.4,6.7,14.5c1.5,1,3.6,0,4-1.6c1.4-5.3-2.5-10.3-5.7-14.9c4.2-1.6,8.3-3.3,12.5-4.9c2.1,5.7,2.3,12.2,6.7,16.7
	c1.2,1.3,3.7,0.7,4.1-1.1c1.4-6.7-2.8-12.1-6.2-17.4c5.2-2,10.4-4,15.6-6c1.3,5.6,2.9,12.5,7.9,15.3c1.8,1,3.9-0.2,3.9-2.3
	c0.1-3.3-1.6-6-3.1-8.8c-1.1-2.1-2.3-4.1-3.4-6.2c4.7-1.8,9.3-3.5,14-5.3c0.8,4.1,1.7,8.5,4.8,10.9c2.1,1.6,5.4,0.7,5.4-2.3
	c0-3.9-2.4-7.4-4.3-10.9c3.4-1.3,6.8-2.5,10.2-3.8c0.8,2.1,1.6,4.2,2.3,6.4c0.9,2.7,1.6,5.7,3.9,7.6c1.5,1.2,4.1,1,4.6-1.2
	c1.2-4.9-2.2-10.3-5.2-14.8c5-1.8,10-3.6,14.9-5.5c0.8,4.9,0.8,11,5.1,13.7c1.2,0.7,3,0.3,3.7-1c1.4-2.7,0.7-5.3-0.4-8
	c-0.5-1.3-1-2.6-1.6-3.9c-0.4-1-1-1.8-1.5-2.7c4.6-1.7,9.3-3.4,13.9-5c0,0.7,0,1.3,0,1.9c0.2,1.3,0.4,2.5,0.7,3.8
	c0.5,2.6,1,5.2,2.3,7.5c1.4,2.5,5.7,1.5,5.6-1.5c-0.2-4-2-8.2-3.7-11.8c-0.2-0.4-0.4-0.9-0.7-1.3c6.1-2.2,12.2-4.3,18.2-6.5
	c0.7,5.2,0.9,10.8,4.2,14.8c1.3,1.6,4.6,0.8,4.9-1.3c0.9-5.2-2-10.4-4-15.3c4.8-1.7,9.6-3.4,14.4-5.1c0.6,5.3,1.1,11.4,5.8,13.6
	c1.5,0.7,3,0.1,3.6-1.5c1.7-4.5-1.8-9.5-4.3-13.9c4.2-1.5,8.4-2.9,12.6-4.4c2-0.7,3.9-1.4,5.9-2.1c0.7,4.5,1.3,8.9,4.2,12.7
	c1.4,1.8,4.4,0.3,4.3-1.8c-0.2-4.4-2.4-8.4-4-12.5c4.3-1.5,8.5-3.1,12.8-4.6c1,4.6,1.7,9.4,4.7,13c1.3,1.6,4.4,0.8,4.7-1.2
	c0.8-4.8-1.3-9.4-3.7-13.6c0.8-0.3,1.7-0.5,2.5-0.8c3.2-1,6.4-1.9,9.6-2.9c0.2,1.3,0.3,2.7,0.6,3.9c0.4,2.5,1.3,4.7,2.3,7
	c1.3,3.1,6.1,1.4,6-1.6c0-2.6-0.3-4.9-1.2-7.4c-0.5-1.3-1.1-2.5-1.8-3.7c0.6-0.2,1.3-0.4,1.9-0.6c4.3-1.3,8.6-2.1,13-3.2
	c5.2,9.1,9.1,18.8,11.6,29c0.6,2.6,1.3,5.3,1.7,7.9c0.1,0.9-0.2,1.8,0.1,1.8c-0.7,0.4-1.8,0.6-2.4,0.9c-6.3,2.5-12.6,4.8-19,7.2
	c-25,9.4-50.1,18.4-75.3,27.3c-50,17.6-100.3,34.5-150.6,51.3C194,489.2,187,491.6,179.9,493.9z M475.2,457.3
	c-2.8,1.5-6.8,1-9.8,0.9c-4.8,0-9.6,0-14.4,0l-28.9-0.1c-33.1-0.1-66.1-0.2-99.2-0.4c37.1-12.8,74.1-25.9,111-39.4
	c3.8-1.4,7.6-2.8,11.4-4.2c3.5-1.3,7.6-2.3,10.7-4.5c5.7-4.2,4.8-10.9,3.8-17.1c-2.4-14.7-8.5-29-16.3-41.6
	c-1.5-2.3-4.5-3.8-7.2-2.9c-5.8,1.8-11.4,4.3-17.2,6.2c-5.4,1.8-10.9,3.6-16.3,5.4c-11.5,3.9-23,7.7-34.5,11.7
	c-11.2,3.9-22.2,8-33.3,12.2c-2.3,0.9-4.6,1.7-6.8,2.6c-3.6,1.2-7.1,2.5-10.7,3.7c-39.1,13.5-78.1,27.4-116.7,42.4
	c-20.6,8-41.1,16.3-61.4,25c-19.2,0-38.3-0.2-57.4-1c-9.6-0.4-36.1,0.9-36.6-13.9c-0.1-3.6,1.4-7.1,3.4-10c1.7-2.4,4.9-6.7,7.7-7.7
	c0.7,3.3,0.6,7,0.9,10.4c0.1,1,0.2,2.1,0.4,3.1c1.8,9.1,11.6,12.7,19.7,13.9c17.1,2.6,34.7-0.2,50.3-7.8c11.5-5.6,29-17,25-31.5
	c0.1-30.2-2.7-60.4-4.2-90.6c-1.5-32-2.6-64-3.3-96c-0.7-32-0.9-64.1-0.7-96.1c0.1-12.7,0.2-25.5,0.5-38.2
	c54.8-1.7,109.6-3.4,164.4-5.1c0.1,0.1,0.2,0.2,0.3,0.3c25.5,24.3,51.1,48.5,76.7,72.7c6.2,5.8,12.4,11.7,18.5,17.6
	c-2.8-2.2-5.6-4.3-8.4-6.5c-9.9-7.6-19.9-15.2-30-22.6c-10.9-8-21.8-15.9-33-23.4c-5.7-3.9-11.5-7.7-17.3-11.4
	c-4.5-2.9-8.7-5.9-14.2-4.1c-5.8,2-11.2,7.8-15.9,11.5c-4.4,3.4-8.8,6.8-13.2,10.2c-6.2,4-12.3,8.1-18.4,12.3c0-3-0.1-6-0.1-8.9
	c0-4.1,1.8-12.2-1.2-15.6c-3.2-3.7-12.1-2.4-16.5-2.5c-7.5-0.2-14.9-0.2-22.4,0.1c-2.1,0.1-4.4,1.9-4.2,4.2
	c1.4,16.9,1.6,33.9,2.5,50.9c-4.4,3-8.8,5.9-13.2,8.9c-4.8,3.3-9.7,6.5-14.5,9.8c-3.8,2.5-9.7,5.1-11.5,9.7c-1.7,4.4,1.9,9,3.8,12.7
	c2.1,4,4.2,8.6,9.6,7.8c4.8-0.7,9.8-5.3,13.8-7.7c1.7-1,3.3-2.1,4.9-3.1c-2.8,29-2,58.7-1.5,87.8c0.1,7.1,0.3,14.2,0.4,21.4
	c0.1,5-1.7,14.9,3.2,18.3c2.1,1.5,5,1.2,7.5,1.2c3.8,0.1,7.6,0.1,11.3,0.2c8.2,0.1,16.5,0.3,24.7,0.4c30.8,0.6,61.6,1.7,92.3,1.3
	c7.5-0.1,15-0.3,22.4-0.7c6.6-0.4,14.1-0.1,20.5-1.7c5.9-1.4,6-7.4,6.7-12.4c1.1-7.7,2-15.4,2.7-23.1c2.7-28.9,3.4-58.6,0.6-87.6
	c1.8,1.9,3.8,3.7,5.8,4.8c4.4,2.3,7.3-0.6,10-3.7c5.4-6.2,15.6-14,10.3-23c1.7,0.9,3.4,1.8,5.4,2.4c3.6,1.2,7.5-2,7.5-5.7
	c-0.7-35.4-0.8-70.8-0.2-106.2c11.4-0.3,22.8-0.6,34.3-0.9c-2.9,72.4-5.1,144.9-3.2,217.3c1,37.1,3.1,74.2,6.9,111.1
	c1,9.4,2.1,18.8,3.3,28.2C477.3,443,480.6,454.3,475.2,457.3z"/>
<path d="M288.6,294.7c-2.4,0.7-4.1,2.9-4.1,5.4c0,1.1,0.3,2.1,0.9,3c0.8,1.3,2,2,3.4,2.6l-1.1-0.5c0.5,0.2,0.9,0.4,1.4,0.6
	c0.8,0.2,1.7,0.2,2.5,0c0.8-0.2,1.5-0.6,2.1-1.2c0.2-0.1,0.3-0.3,0.5-0.5c0.7-0.6,1.2-1.4,1.5-2.4c0.6-2,0.1-4.2-1.4-5.7
	C292.8,294.6,290.6,294.1,288.6,294.7z"/>
<path d="M335.6,191.1c-6.8-0.4-13.5-0.6-20.2-0.6c-0.8-0.1-1.6-0.1-2.4-0.2c-12.5-0.9-25-0.9-37.5-0.8c-5.8,0.1-11.9-0.3-17.6,0.5
	c-3.8,0.6-4.9,2.8-5.2,6.5c-1.1,12.3-0.2,25.3,0.9,37.6c0.2,2.2,1.6,3.8,3.9,3.9c19,0.9,37.9,1.5,56.9,1.6
	c9.4,0.1,19.1,0.4,28.5-0.3c7.9-0.6,7.3-9.1,7.9-15.2c0.8-8.5,1.7-18.2,0.2-26.8C349.6,190.1,341.4,191.5,335.6,191.1z M261,230.4
	c-0.4-4.1-0.7-8.3-0.9-12.4c6.2,1.2,13,1.1,19.3,1.4c1,0,1.9,0.1,2.9,0.1c0.1,1.6,0.2,3.3,0.3,4.9c0.1,2.3,0.1,4.5,0.5,6.7
	C275.6,230.9,268.3,230.6,261,230.4z M282,212.9c0,0.1,0,0.2,0,0.3c-0.9,0-1.8-0.1-2.7-0.1c-6.4-0.3-13.1-1.1-19.5-0.5
	c-0.3-4.8-0.7-10.4,0.1-15.1c0.8,0,1.5-0.1,2.3-0.1c2-0.1,4.1-0.2,6.1-0.2c3.4-0.1,6.8-0.2,10.1-0.2c1.9,0,3.8,0,5.6,0
	C282.1,201.8,282,208.1,282,212.9z M311.5,231.7c-2.4,0-4.9,0-7.3-0.1c-4.9-0.1-9.8-0.2-14.7-0.4c0.1-2.3-0.3-4.6-0.4-6.9
	c-0.1-1.6-0.2-3.1-0.3-4.7c4.6,0.2,9.2,0.4,13.8,0.5c3,0.1,6.1,0.2,9.1,0.2C311.4,224.2,311.4,228,311.5,231.7z M312.3,210.1
	c-0.1,1.3-0.2,2.6-0.3,4c-3.2-0.1-6.3-0.1-9.5-0.2c-4.7-0.1-9.4-0.3-14.1-0.4c-0.2-5.3,0.8-11.2,0.5-16.5c4.3,0,8.6,0.1,12.8,0.2
	c3.9,0.1,7.8,0.3,11.7,0.5C312.3,201.6,312.5,206.9,312.3,210.1z M342.6,225.1c-0.2,1.9,0,4.5-0.7,6.3c-0.7,0-1.4,0-2.1,0.1
	c-3.7,0.1-7.5,0.2-11.2,0.2c-3.4,0-6.8,0-10.1,0c0.3-3.7,0.3-7.4,0.4-11.2c2.3,0,4.6,0.1,6.9,0.1c5.6,0.1,11.4,0.4,17.1,0.2
	C342.8,222.3,342.7,223.7,342.6,225.1z M343.2,214.2c-5.8-0.3-11.7,0.1-17.5,0c-2.3,0-4.5-0.1-6.8-0.1c0-1.4,0.1-2.7,0.1-4.1
	c0.1-3.3,1-8.2,0.4-12.2c4.4,0.2,8.8,0.4,13.2,0.5c2,0.2,3.9,0.4,5.9,0.6c0.3,0,2.9,0.3,4.2,0.3c0,0.2,0.1,0.4,0.1,0.6
	c0.1,1,0.1,1.9,0.2,2.9C343.2,206.6,343.3,210.4,343.2,214.2z"/>
<path d="M336.2,56.8c6,5.2,12.1,10.3,18.2,15.4c6.2,5.2,12.4,10.3,18.6,15.5c5.6,4.7,11.1,9.9,17.5,13.5c2.5,1.4,5.4,0.5,6.9-1.8
	c2.2-3.2,2.1-7,2.3-10.7c0.3-4.8,0.4-9.5,0.5-14.3c0.2-9.5,0-19-0.6-28.5c-0.2-3.1,0.2-7.4-1.7-10.1c-2.2-3.2-6.1-2.9-9.5-2.8
	c-6.1,0.1-13.3-0.6-19.8,0.3c-2.3,0-4.6,0-6.9-0.1c-11.4-0.1-23-0.1-34.4,1.1c-3.9,0.4-6.3,4-4.4,7.6C326,48,331.2,52.4,336.2,56.8z
	 M389.9,88.8c-1.9-1.4-3.7-2.9-5.5-4.5c1.8-0.1,3.7-0.1,5.5-0.2C389.9,85.6,390,87.2,389.9,88.8z M361.6,43
	c7.2-0.2,14.4-0.5,21.6-0.9c1.6-0.1,3.1-0.2,4.6,0c0.4,0.1,0.8,0.1,1,0.4c0.2,0.2,0.2,0.6,0.2,0.9c0.3,7.6,0.7,15.2,0.8,22.8
	c0,1.8,0,3.6,0,5.3c-6.7,0.2-13.4,0.4-20.1,0.7c-2.8-2.3-5.7-4.7-8.5-7c-5.4-4.5-10.9-8.9-16.2-13.5c-2.9-2.6-6-5.2-8.6-8.1
	C344.9,43.3,353.3,43.3,361.6,43z"/>
</svg>
